<?xml version="1.0" encoding="utf-8"?>
<!-- Generator: Adobe Illustrator 27.5.0, SVG Export Plug-In . SVG Version: 6.00 Build 0)  -->
<svg version="1.1" id="Layer_1" xmlns="http://www.w3.org/2000/svg" xmlns:xlink="http://www.w3.org/1999/xlink" x="0px" y="0px"
	 viewBox="0 0 4000 4000" style="enable-background:new 0 0 4000 4000;" xml:space="preserve">
<g>
	<g>
		<g>
			<g>
				<rect style="fill:#CF9EF5;" width="4000" height="4000"/>
			</g>
		</g>
	</g>
	<g>
		<g style="opacity:0.2;">
			<g>
				<g>
					
						<ellipse transform="matrix(0.0054 -1 1 0.0054 -1564.5588 5551.7788)" style="fill:#371A45;" cx="2008.745" cy="3562.434" rx="132.587" ry="818.144"/>
				</g>
			</g>
		</g>
		<g>
			<g>
				<g>
					<g>
						<path style="fill-rule:evenodd;clip-rule:evenodd;fill:#606060;" d="M2951.187,1475.514
							c15.401-28.664,4.65-64.385-24.014-79.787l-163.665-87.939c-28.664-15.401-64.385-4.65-79.787,24.014l-36.633,68.179
							c-15.401,28.664-4.65,64.385,24.014,79.787"/>
					</g>
				</g>
			</g>
			<g>
				<g>
					<g>
						<path style="fill-rule:evenodd;clip-rule:evenodd;fill:#996250;" d="M1716.461,2401.057l-108.73,56.94l-52.245,27.329
							l-513.653-981.43c-23.255-44.373-6.103-99.176,38.27-122.43l0.275-0.108c44.373-23.255,99.176-6.103,122.431,38.27
							l28.035,53.621L1716.461,2401.057z"/>
					</g>
				</g>
			</g>
			<g style="opacity:0.2;">
				<g>
					<g>
						<path style="fill-rule:evenodd;clip-rule:evenodd;fill:#39005E;" d="M1607.731,2457.998l-52.245,27.329l-513.653-981.43
							c-23.255-44.373-6.103-99.176,38.27-122.43l0.275-0.108c44.373-23.255,99.176-6.103,122.431,38.27l28.035,53.621
							l-72.485,41.017c-15.494,8.768-21.304,28.203-13.164,44.036L1607.731,2457.998z"/>
					</g>
				</g>
			</g>
			<g>
				<g>
					<g>
						<path style="fill:#371A45;" d="M1555.478,2507.302c-2.202,0-4.414-0.332-6.558-1.001c-5.557-1.738-10.195-5.615-12.896-10.776
							l-513.662-981.433c-28.809-55.046-7.466-123.267,47.578-152.075c55.283-28.933,123.511-7.59,152.319,47.449l513.662,981.435
							c5.625,10.742,1.475,24.014-9.273,29.634l-160.991,84.263C1562.49,2506.458,1558.993,2507.302,1555.478,2507.302z
							 M1122.323,1392.967c-10.737,0-21.621,2.517-31.772,7.832c-33.838,17.708-46.86,59.338-29.282,92.927l503.481,961.98
							l122.08-63.896l-503.477-961.977C1171.083,1406.394,1147.104,1392.967,1122.323,1392.967z"/>
					</g>
				</g>
			</g>
			<g>
				<g>
					<g>
						
							<rect x="1090.64" y="1766.269" transform="matrix(0.886 -0.4637 0.4637 0.886 -689.9767 810.7678)" style="fill-rule:evenodd;clip-rule:evenodd;fill:#ADADAD;" width="426.294" height="84.5"/>
					</g>
				</g>
			</g>
			<g>
				<g>
					<g>
						<path style="fill:#371A45;" d="M1134.531,1966.748c-2.207,0-4.414-0.332-6.558-1.001c-5.557-1.741-10.195-5.615-12.896-10.776
							l-39.18-74.866c-5.625-10.745-1.475-24.011,9.272-29.636l377.69-197.676c10.747-5.62,24.014-1.465,29.634,9.272l39.185,74.866
							c2.7,5.161,3.242,11.182,1.504,16.741c-1.738,5.557-5.615,10.198-10.776,12.898l-377.695,197.676
							C1141.542,1965.904,1138.046,1966.748,1134.531,1966.748z M1124.985,1879.197l18.818,35.957l338.784-177.312l-18.818-35.957
							L1124.985,1879.197z"/>
					</g>
				</g>
			</g>
			<g>
				<g>
					<g>
						<path style="fill-rule:evenodd;clip-rule:evenodd;fill:#606060;" d="M1196.437,1403.074l-164.611,86.154
							c-28.829,15.089-64.432,3.95-79.521-24.88l-35.89-68.573c-15.089-28.829-3.95-64.432,24.88-79.521l164.611-86.154
							c28.829-15.089,64.432-3.95,79.521,24.88l35.89,68.573C1236.405,1352.382,1225.266,1387.985,1196.437,1403.074z"/>
					</g>
				</g>
			</g>
			<g style="opacity:0.6;">
				<g>
					<g>
						<path style="fill-rule:evenodd;clip-rule:evenodd;fill:#FFFFFF;" d="M1227.977,1354.108l-30.97-59.072
							c-15.104-28.848-50.671-40.021-79.519-24.916l-164.609,86.171c-19.048,9.997-30.405,28.93-31.502,48.906l-4.944-9.414
							c-15.104-28.848-3.987-64.415,24.861-79.52l164.608-86.171c28.848-15.104,64.415-3.932,79.52,24.861l35.913,68.596
							C1226.443,1333.294,1228.527,1343.845,1227.977,1354.108z"/>
					</g>
				</g>
			</g>
			<g style="opacity:0.2;">
				<g>
					<g>
						<path style="fill-rule:evenodd;clip-rule:evenodd;fill:#39005E;" d="M1196.419,1403.069l-164.609,86.171
							c-28.793,15.105-64.415,3.932-79.519-24.916l-35.858-68.541c-14.453-27.582-4.882-61.346,21.226-77.453
							c0.271,0.605,0.542,1.21,0.869,1.761l35.914,68.596c15.104,28.848,50.671,39.966,79.519,24.861l164.608-86.116
							c1.266-0.652,2.478-1.359,3.635-2.066C1235.938,1353.877,1224.662,1388.291,1196.419,1403.069z"/>
					</g>
				</g>
			</g>
			<g>
				<g>
					<g>
						<path style="fill:#371A45;" d="M1004.638,1517.893c-29.155,0-57.358-15.791-71.787-43.362l-35.889-68.577
							c-20.679-39.507-5.361-88.477,34.146-109.155l164.619-86.155c39.512-20.676,88.477-5.356,109.155,34.153l35.889,68.572
							c20.679,39.512,5.356,88.481-34.155,109.16l-164.609,86.155C1030.068,1514.932,1017.265,1517.893,1004.638,1517.893z
							 M1133.163,1245.345c-5.767,0-11.616,1.355-17.07,4.209l-164.619,86.155c-18.052,9.451-25.054,31.829-15.605,49.883
							l35.889,68.577c9.453,18.054,31.826,25.051,49.888,15.605l164.609-86.155l0,0c18.057-9.451,25.059-31.829,15.61-49.885
							l-35.889-68.569C1159.379,1252.564,1146.489,1245.345,1133.163,1245.345z"/>
					</g>
				</g>
			</g>
			<g>
				<g>
					<g>
						<path style="fill-rule:evenodd;clip-rule:evenodd;fill:#996250;" d="M2824.849,1537.197l-524.296,975.786l-26.821-14.419
							l-133.228-71.595l494.127-919.627l30.169-56.16c23.736-44.117,78.722-60.672,122.839-36.936l0.274,0.111
							C2832.031,1438.093,2848.585,1493.079,2824.849,1537.197z"/>
					</g>
				</g>
			</g>
			<g style="opacity:0.2;">
				<g>
					<g>
						<path style="fill-rule:evenodd;clip-rule:evenodd;fill:#39005E;" d="M2824.849,1537.197l-524.296,975.786l-26.821-14.419
							l435.325-888.114c14.663-29.915,2.194-66.05-27.798-80.556l-46.629-22.552l30.169-56.16
							c23.736-44.117,78.722-60.672,122.839-36.936l0.274,0.111C2832.031,1438.093,2848.585,1493.079,2824.849,1537.197z"/>
					</g>
				</g>
			</g>
			<g>
				<g>
					<g>
						<path style="fill:#371A45;" d="M2300.551,2534.959c-3.506,0-7.065-0.845-10.376-2.622l-160.063-86.006
							c-5.132-2.754-8.96-7.437-10.635-13.013c-1.68-5.576-1.074-11.592,1.685-16.724l524.307-975.786
							c14.243-26.511,37.959-45.889,66.777-54.563c28.813-8.677,59.282-5.603,85.801,8.64c26.758,14.377,46.133,38.093,54.81,66.912
							c8.672,28.821,5.605,59.292-8.643,85.803l-524.302,975.786C2315.951,2530.764,2308.378,2534.959,2300.551,2534.959z
							 M2170.239,2418.04l121.382,65.22l513.911-956.448c8.691-16.177,10.562-34.771,5.269-52.356
							c-5.293-17.588-17.114-32.061-33.296-40.752c-16.426-8.828-35.034-10.698-52.603-5.405
							c-17.588,5.293-32.056,17.117-40.752,33.296L2170.239,2418.04z"/>
					</g>
				</g>
			</g>
			<g>
				<g>
					<g>
						
							<rect x="2346.457" y="1796.699" transform="matrix(-0.8809 -0.4733 0.4733 -0.8809 3943.9399 4670.3662)" style="fill-rule:evenodd;clip-rule:evenodd;fill:#ADADAD;" width="426.294" height="84.5"/>
					</g>
				</g>
			</g>
			<g>
				<g>
					<g>
						<path style="fill:#371A45;" d="M2727.367,1999.012c-3.594,0-7.168-0.881-10.396-2.615l-375.522-201.772
							c-10.679-5.74-14.688-19.053-8.945-29.736l39.995-74.436c2.754-5.129,7.437-8.955,13.013-10.632
							c5.576-1.682,11.592-1.077,16.724,1.682l375.522,201.772c10.679,5.74,14.688,19.053,8.945,29.736l-39.995,74.436
							c-2.754,5.129-7.437,8.955-13.013,10.632C2731.625,1998.704,2729.491,1999.012,2727.367,1999.012z M2381.581,1766.331
							l336.836,180.986l19.209-35.75l-336.836-180.986L2381.581,1766.331z"/>
					</g>
				</g>
			</g>
			<g>
				<g>
					<g>
						<path style="fill-rule:evenodd;clip-rule:evenodd;fill:#606060;" d="M2671.357,1434.696l163.665,87.939
							c28.664,15.401,64.385,4.65,79.787-24.014l36.633-68.179c15.401-28.664,4.65-64.385-24.014-79.787l-163.665-87.939
							c-28.664-15.401-64.385-4.65-79.787,24.014l-36.633,68.179C2631.942,1383.573,2642.693,1419.294,2671.357,1434.696z"/>
					</g>
				</g>
			</g>
			<g style="opacity:0.6;">
				<g>
					<g>
						<path style="fill-rule:evenodd;clip-rule:evenodd;fill:#FFFFFF;" d="M2953.86,1425.361
							c-4.984-12.214-14.149-22.859-26.683-29.624l-163.662-87.955c-28.682-15.417-64.369-4.632-79.785,23.995l-36.657,68.202
							c-0.887,1.642-1.665,3.339-2.388,5.037c-6.393-15.68-6.019-34.014,2.633-50.106l36.658-68.201
							c15.417-28.627,51.103-39.412,79.785-23.995l163.662,87.955C2954.462,1365.143,2965.539,1397.702,2953.86,1425.361z"/>
					</g>
				</g>
			</g>
			<g style="opacity:0.2;">
				<g>
					<g>
						<path style="fill-rule:evenodd;clip-rule:evenodd;fill:#39005E;" d="M2951.417,1430.453l-36.602,68.147
							c-15.417,28.682-51.103,39.412-79.785,24.05l-163.662-87.956c-28.682-15.417-39.412-51.103-24.05-79.785l5.103-9.524
							c4.959,6.724,11.46,12.469,19.343,16.684l163.662,87.956c28.682,15.362,64.368,4.632,79.785-24.05l31.5-58.678
							C2960.008,1385.046,2962.619,1409.598,2951.417,1430.453z"/>
					</g>
				</g>
			</g>
			<g>
				<g>
					<g>
						<path style="fill:#371A45;" d="M2862.802,1551.648c-13.179,0-26.235-3.257-38.174-9.67l-163.667-87.939
							c-39.282-21.108-54.067-70.239-32.959-109.521l36.636-68.179c10.22-19.031,27.246-32.939,47.93-39.165
							c20.688-6.221,42.559-4.021,61.592,6.201l163.662,87.939c19.028,10.225,32.939,27.249,39.165,47.935
							s4.023,42.561-6.206,61.589l-36.631,68.176c-10.22,19.031-27.246,32.939-47.93,39.165
							C2878.51,1550.498,2870.634,1551.648,2862.802,1551.648z M2681.752,1415.352l163.667,87.939
							c8.696,4.673,18.691,5.674,28.145,2.834c9.448-2.844,17.231-9.202,21.904-17.898l36.631-68.179
							c4.673-8.696,5.679-18.691,2.837-28.145c-2.847-9.453-9.204-17.231-17.9-21.904l-163.667-87.939
							c-8.696-4.673-18.696-5.681-28.14-2.834c-9.453,2.844-17.236,9.202-21.909,17.898l-36.636,68.179
							C2657.04,1383.255,2663.798,1405.706,2681.752,1415.352z"/>
					</g>
				</g>
			</g>
			<g>
				<g>
					<g>
						<path style="fill:#FFFFFF;" d="M2880.713,2661.723c0,0,27.525,127.18-92.609,151.23
							c-117.661,23.569-201.14-0.105-240.556-80.798c-0.869-1.707-1.683-3.468-2.497-5.229c0,0,96.431,438.158,66.948,670.923
							c0,0,32.507,8.631,57.307,31.218c17.644,16.126,31.406,39.312,26.839,71.566c-11.017,77.563-134.492,69.865-265.089,79.75
							c-130.652,9.83-264.798,16.182-278.254-103.895c-13.456-120.022-35.95-384.854-155.625-516.049
							c0,0-104.224,278.197-133.476,468.638c0,0,52.592,60.233,41.71,113.149c-10.882,52.861-162.784,83.82-342.707,68.678
							c-179.868-15.086-222.209-22.344-163.419-445.549c0,0,48.617-500.83,56.104-585.494
							c7.542-84.664-13.033-197.698-13.033-197.698s-53.763,155.01-78.964,246.604c0,0,87.448,141.614-50.288,162.055
							c0,0,17.18,81.285-166.448,101.422c-149.133,16.372-192.59-138.837-172.842-297.709
							c4.537-36.811,12.478-73.768,23.319-108.898c57.504-186.774,235.229-857.739,1007.337-866.222
							c281.964-3.078,552.488,179.66,688.622,494.298c85.28,197.157,139.727,320.201,177.935,380.63
							c3.647,5.784,7.132,11.018,10.51,15.648C2920.06,2563.123,2919.773,2616.042,2880.713,2661.723z"/>
					</g>
				</g>
			</g>
			<g>
				<g>
					<g>
						<path style="fill:#371A45;" d="M1651.332,3636.638c-29.829,0-60.288-1.299-90.449-3.828
							c-76.89-6.45-137.627-11.543-173.564-56.484c-43.369-54.233-45.771-154.756-9.854-413.511
							c1.694-17.466,48.73-502.388,56.06-584.893c2.744-30.913,1.538-66.162-1.011-97.935
							c-15.347,46.489-33.237,102.32-45.527,145.84c12.319,22.764,39.717,82.749,17.139,131.309
							c-12.051,25.918-35.513,43.325-69.853,51.889c-1.773,9.741-5.928,21.724-14.971,34.229
							c-27.197,37.588-84.473,61.421-170.234,70.845c-60.557,6.65-111.157-12.305-146.313-54.829
							c-72.295-87.446-65.454-253.921-26.611-380.112c1.851-6.006,3.823-12.52,5.938-19.492
							c64.033-211.172,258.901-853.794,1022.158-862.205l0.244,21.958l-0.244-21.958c144.922-1.709,287.285,44.05,411.895,132.009
							c126.812,89.514,229.556,219.363,297.114,375.508c87.837,203.008,148.242,339.971,186.045,392.109
							c42.485,58.604,43.979,118.901,4.59,170.84c2.617,21.235,4.722,69.507-21.709,109.844c-19.39,29.6-49.59,48.687-89.751,56.733
							c-89.6,17.93-159.272,9.561-208.281-24.883c25.718,136.035,68.516,399.771,51.641,573.14
							c39.746,16.226,91.455,55.049,82.1,120.957c-11.792,83.149-115.137,88.804-224.546,94.79
							c-19.756,1.084-40.19,2.202-60.649,3.745c-120.469,9.116-285.459,21.587-301.704-123.301
							c-0.771-6.87-1.572-14.214-2.417-21.978c-12.764-117.168-35.679-327.475-124.019-452.324
							c-28.252,79.688-93.872,273.506-117.656,418.257c15.283,20.088,50.444,73.076,40.029,123.73
							C1914.155,3608.699,1789.78,3636.634,1651.332,3636.638z M1442.343,2360.208c0.561,0,1.128,0.019,1.699,0.063
							c9.951,0.771,18.13,8.15,19.912,17.964c0.864,4.736,21.006,116.958,13.311,203.574
							c-7.441,83.774-55.645,580.684-56.133,585.693c-0.029,0.303-0.063,0.601-0.107,0.903
							c-32.754,235.865-32.598,338.99,0.591,380.493c23.018,28.779,67.065,33.784,142.94,40.151
							c199.307,16.704,313.838-24.487,319.346-51.26c7.075-34.39-24.16-79.751-36.792-94.326
							c-4.224-4.868-6.113-11.377-5.137-17.744c29.277-190.464,130.366-461.558,134.658-473.008
							c2.681-7.158,8.896-12.407,16.406-13.858c7.485-1.435,15.225,1.118,20.381,6.768
							c117.671,129.033,144.429,374.644,158.804,506.597c0.84,7.715,1.636,15.01,2.402,21.841
							c10.679,95.225,116.943,94.81,254.751,84.404c20.913-1.582,41.577-2.715,61.563-3.804
							c109.966-6.021,177.188-12.866,183.467-57.114c8.174-57.597-67.261-78.286-68.022-78.486
							c-10.635-2.817-17.544-13.071-16.157-23.984c28.687-226.372-65.64-659.063-66.597-663.403
							c-2.417-10.986,3.853-22.021,14.526-25.562c10.684-3.564,22.3,1.548,26.929,11.802
							c32.71,72.393,104.243,96.446,218.716,73.525c28.091-5.625,48.784-18.247,61.494-37.515
							c24.224-36.704,14.023-87.114,13.921-87.622c-1.396-6.665,0.361-13.672,4.79-18.847
							c32.344-37.813,32.256-79.732-0.269-124.585c-40.537-55.913-99.121-188.589-190.791-400.449
							c-128.647-297.324-381.543-481.082-661.177-481.082c-2.358,0-4.682,0.012-7.041,0.039l0,0
							c-731.065,8.052-918.897,627.483-980.62,831.033c-2.134,7.036-4.126,13.608-5.991,19.668
							c-41.846,135.938-34.243,275.425,18.486,339.214c25.64,31.01,61.841,44.189,107.671,39.155
							c93.511-10.273,126.782-36.616,138.291-51.401c9.404-12.075,9.121-22.002,8.95-23.999c-1.587-5.957-0.41-11.646,2.954-16.851
							c3.433-5.303,9.151-8.159,15.396-9.082c28.657-4.253,46.963-14.487,54.409-30.43c14.443-30.923-9.253-81.518-19.6-98.408
							c-3.174-5.176-4.082-11.47-2.471-17.329c25.102-91.26,78.867-246.421,79.404-247.979
							C1424.692,2366.082,1433.061,2360.208,1442.343,2360.208z"/>
					</g>
				</g>
			</g>
			<g>
				<g>
					<g>
						<path style="fill:#371A45;" d="M2604.412,3418.439c-0.417-0.229-1.599-0.673-2.532-1.047
							c-0.933-0.395-2.053-0.759-3.098-1.138c-2.09-0.779-4.285-1.483-6.509-2.171c-4.377-1.46-9.001-2.607-13.557-3.835
							c-9.224-2.22-18.618-4.222-28.162-5.554c-19.063-2.789-38.55-4.176-58.108-3.656c-4.902-0.053-9.768,0.484-14.673,0.693
							c-4.902,0.257-9.817,0.523-14.685,1.208l-14.685,1.71c-4.871,0.765-9.717,1.706-14.592,2.549
							c-9.819,1.452-19.338,4.234-29.045,6.472c-9.634,2.482-19.038,5.797-28.638,8.668l-0.667,0.199
							c-4.158,1.244-8.538-1.119-9.783-5.278c-1.155-3.861,0.803-7.913,4.417-9.469c9.509-4.104,18.904-8.67,28.633-12.42
							c9.807-3.506,19.504-7.564,29.624-10.3c5.027-1.485,10.042-3.066,15.11-4.471l15.366-3.625
							c5.115-1.321,10.31-2.22,15.518-3.106c5.212-0.838,10.405-1.999,15.669-2.564c20.999-2.991,42.354-3.985,63.821-3.339
							c10.742,0.261,21.504,1.254,32.307,2.575c5.413,0.792,10.806,1.5,16.27,2.624c2.722,0.508,5.457,1.05,8.245,1.723
							c1.396,0.329,2.742,0.606,4.221,1.016c1.489,0.403,2.744,0.694,4.719,1.328l2.222,0.713
							c11.643,3.735,18.054,16.201,14.321,27.844c-3.735,11.643-16.204,18.054-27.847,14.319
							C2606.965,3419.681,2605.598,3419.079,2604.412,3418.439z"/>
					</g>
				</g>
			</g>
			<g>
				<g>
					<g>
						<path style="fill:#371A45;" d="M1853.564,3448.549c-2-1.138-5.129-2.744-7.881-4.062c-2.844-1.381-5.759-2.727-8.706-4.028
							c-5.901-2.591-11.902-5.094-18.018-7.365c-12.195-4.625-24.702-8.625-37.388-11.999
							c-25.374-6.819-51.501-10.933-77.813-12.505c-13.162-0.67-26.357-0.627-39.553,0.025c-13.169,0.867-26.333,2.283-39.38,4.582
							c-26.089,4.58-51.672,12.423-76.228,23.004l-0.117,0.05c-5.005,2.157-10.811-0.152-12.966-5.157
							c-2.056-4.769-0.024-10.281,4.5-12.655c25.061-13.067,51.729-23.462,79.392-30.44c13.833-3.5,27.898-6.077,42.068-8.052
							c14.189-1.759,28.481-2.855,42.813-3.174c28.645-0.405,57.388,1.983,85.627,7.384c14.131,2.668,28.142,6.034,42.009,10.153
							c6.943,2.017,13.833,4.303,20.72,6.744c3.442,1.227,6.877,2.515,10.33,3.887c3.555,1.412,6.667,2.686,10.813,4.623
							c10.994,5.141,15.74,18.221,10.601,29.216c-5.142,10.995-18.223,15.741-29.216,10.6c-0.518-0.242-1.021-0.501-1.509-0.776
							L1853.564,3448.549z"/>
					</g>
				</g>
			</g>
			<g>
				<g>
					<g>
						<path style="fill:#371A45;" d="M2302.392,3251.482c-100.063,0-182.764-7.481-189.878-8.14
							c-12.075-1.128-20.952-11.826-19.829-23.901c1.123-12.07,11.753-20.908,23.901-19.829
							c3.579,0.332,359.082,32.461,486.201-35.796c10.684-5.747,23.994-1.733,29.731,8.96c5.737,10.684,1.724,23.994-8.96,29.732
							C2550.043,3241.98,2415.185,3251.482,2302.392,3251.482z"/>
					</g>
				</g>
			</g>
			<g>
				<g>
					<g>
						<path style="fill:#371A45;" d="M1776.459,3239.388c-169.312,0-371.748-39.092-382.935-41.284
							c-11.904-2.324-19.663-13.862-17.334-25.762c2.324-11.904,13.877-19.649,25.762-17.334
							c3.53,0.688,354.434,68.452,509.341,27.143c11.709-3.13,23.75,3.843,26.875,15.557c3.125,11.719-3.843,23.75-15.557,26.875
							C1882.402,3235.305,1831.147,3239.388,1776.459,3239.388z"/>
					</g>
				</g>
			</g>
			<g>
				<g>
					<g>
						<path style="fill:#371A45;" d="M1744.221,2877.817c49.507,21.718,101.003,37.406,153.547,46.102
							c26.272,4.294,52.761,7.035,79.338,7.761l19.929,0.362l20.046-0.637l20.037-0.619c6.675-0.267,13.298-1.056,19.951-1.553
							c53.193-4.253,105.649-15.116,155.977-32.473c24.89-9.329,49.497-19.636,72.959-32.284c5.784-3.267,11.689-6.391,17.412-9.785
							c5.588-3.571,11.421-6.873,16.914-10.585c5.557-3.653,11.057-7.39,16.353-11.344c5.322-3.786,10.72-8.085,15.21-11.938
							l0.649-0.559c4.563-3.915,11.433-3.39,15.349,1.171c3.589,4.183,3.445,10.308-0.12,14.315
							c-5.232,5.893-10.088,10.818-15.391,15.783c-5.212,4.954-10.684,9.535-16.187,14.092c-5.442,4.655-11.272,8.715-16.951,13.058
							c-5.779,4.167-11.738,8.049-17.622,12.091c-23.975,15.404-49.402,28.41-75.632,39.565
							c-52.764,21.543-108.928,34.302-165.449,39.278c-7.07,0.57-14.128,1.603-21.213,1.782l-21.255,0.468l-21.25,0.45
							l-21.367-0.595c-28.457-1.557-56.829-5.147-84.656-11.179c-55.657-11.883-109.343-32.836-157.2-62.672
							c-5.332-3.324-6.96-10.34-3.635-15.672c3.03-4.86,9.128-6.642,14.221-4.401L1744.221,2877.817z"/>
					</g>
				</g>
			</g>
			<g>
				<g>
					<g>
						<path style="fill:#371A45;" d="M1558.684,2006.966l-95.19,381.113c-2.939,11.77-14.863,18.928-26.633,15.989
							c-11.77-2.94-18.928-14.865-15.989-26.635c0.093-0.369,0.215-0.802,0.325-1.162l115.977-375.309
							c1.821-5.895,8.076-9.197,13.972-7.375C1556.831,1995.344,1560.098,2001.26,1558.684,2006.966z"/>
					</g>
				</g>
			</g>
			<g>
				<g>
					<g>
						<path style="fill:#371A45;" d="M1428.066,2446.023c-7.085,0-14.038-3.423-18.271-9.751
							c-4.536-6.714-108.813-156.387-342.983-126.616c-12.026,1.533-23.027-6.977-24.556-19.009
							c-1.533-12.031,6.982-23.027,19.009-24.555c262.456-33.404,380.171,138.457,385.054,145.791
							c6.724,10.088,3.999,23.721-6.094,30.449C1436.484,2444.827,1432.25,2446.023,1428.066,2446.023z"/>
					</g>
				</g>
			</g>
			<g style="opacity:0.2;">
				<g>
					<g>
						<path style="fill:#371A45;" d="M2880.754,2650.388c0,0,27.525,127.18-92.609,151.23
							c-117.661,23.569-201.14-0.105-240.556-80.798c-24.62-85.882-60.184-178.466-110.708-225.458c0,0,23.009-284.128,9.661-403.71
							c0,0,102.91,3.744,143.665,171.454c40.699,167.765,15.188,326.496,102.025,368.525
							c86.782,42.029,140.776,36.393,165.138-42.141c8.27-26.745,12.162-66.139,13.699-106.479
							c3.647,5.784,7.132,11.018,10.51,15.647C2920.101,2551.789,2919.813,2604.707,2880.754,2650.388z"/>
					</g>
				</g>
			</g>
			<g>
				<g>
					<g>
						<path style="fill:#371A45;" d="M2393.241,2440.174c-5.806,0-11.597-2.285-15.913-6.821
							c-8.359-8.784-8.013-22.685,0.771-31.045c6.445-6.133,160.278-150.459,371.763-174.414
							c12.036-1.421,22.92,7.295,24.287,19.346s-7.295,22.925-19.346,24.287c-196.987,22.32-344.961,161.196-346.431,162.598
							C2404.12,2438.167,2398.676,2440.174,2393.241,2440.174z"/>
					</g>
				</g>
			</g>
			<g>
				<g>
					<g>
						<path style="fill:#371A45;" d="M1313.09,2812.796c-8.745,0-17.007-5.259-20.42-13.877l0,0
							c-0.171-0.425-17.28-42.719-51.089-71.723c-9.204-7.896-10.264-21.758-2.368-30.962c7.886-9.209,21.753-10.274,30.962-2.368
							c42.295,36.279,62.5,86.792,63.34,88.926c4.443,11.284-1.104,24.033-12.388,28.472
							C1318.49,2812.302,1315.766,2812.796,1313.09,2812.796z"/>
					</g>
				</g>
			</g>
			<g>
				<g>
					<g>
						<path style="fill:#371A45;" d="M1323.342,2714.653c-2.466,0.611-5.72,0.924-8.574,1.374c-2.964,0.484-5.854,0.856-8.74,1.368
							c-5.747,0.877-11.313,1.987-16.709,3.133c-10.793,2.337-20.742,5.485-29.939,9.495c-4.744,1.779-8.923,4.424-13.438,6.611
							c-4.119,2.792-8.662,5.086-12.69,8.385c-4.463,2.762-8.269,6.521-12.769,9.951c-4.46,3.504-8.289,7.862-13.574,11.624
							l-2.102,1.497c-5.901,4.2-14.087,2.821-18.286-3.079c-2.146-3.012-2.827-6.662-2.205-10.031
							c0.681-3.622,1.697-7.167,2.781-10.74c1.152-3.543,2.126-7.216,4.026-10.489c3.489-6.696,7.219-13.47,12.534-19.228
							c4.736-6.26,11.001-11.129,17.166-16.116c6.638-4.239,13.418-8.557,20.84-11.2c14.602-5.894,30.21-8.314,45.161-7.536
							c7.488,0.513,14.841,1.558,21.953,3.553c3.552,0.958,7.063,2.099,10.481,3.546c3.518,1.431,6.614,2.926,10.4,5.114
							c5.723,3.304,7.683,10.622,4.38,16.344c-1.687,2.921-4.419,4.861-7.451,5.622L1323.342,2714.653z"/>
					</g>
				</g>
			</g>
			<g>
				<g>
					<g>
						<path style="fill:#371A45;" d="M2900.894,2670.313c-1.294,2.954-2.202,4.759-3.333,6.963c-1.06,2.153-2.224,4.12-3.345,6.175
							c-2.329,4.013-4.722,7.962-7.397,11.749c-5.281,7.608-11.113,14.932-17.93,21.659c-6.572,6.879-14.434,12.91-22.742,18.388
							c-4.412,2.452-8.762,5.052-13.484,7.028l-7.219,2.759c-1.211,0.438-2.402,0.921-3.633,1.305l-3.792,0.913
							c-5.063,1.194-10.107,2.471-15.31,2.653l-7.749,0.571c-2.573,0.104-5.1-0.225-7.651-0.347l-7.625-0.584
							c-2.502-0.247-4.663-0.816-7.007-1.219c-4.609-0.864-9.209-1.729-13.701-3.197c-18.062-5.141-35.464-13.611-50.376-26.161
							c-14.875-12.316-27.654-29.343-32.798-50.866c-0.74-2.608-0.854-5.512-1.24-8.261c-0.352-2.779-0.618-5.557-0.349-8.441
							c0.156-2.853,0.276-5.712,0.613-8.535c0.605-2.8,1.267-5.596,1.98-8.368c0.566-2.836,1.821-5.364,2.949-7.956
							c1.223-2.514,2.175-5.283,3.743-7.505c3.062-4.538,5.967-9.16,9.854-13.096c7.595-8.023,17.964-14.573,28.916-17.436
							c10.959-2.972,21.799-2.783,31.541-1.021c9.751,1.793,18.662,5.016,26.829,9.078c4.109,1.99,8.01,4.277,11.782,6.72
							c3.87,2.495,7.244,4.854,11.194,8.171c5.571,4.677,6.296,12.985,1.619,18.555c-3.755,4.472-9.851,5.821-14.99,3.759
							l-1.45-0.588c-2.795-1.126-6.46-2.753-9.766-3.968c-3.406-1.257-6.846-2.359-10.222-3.402
							c-6.787-2.035-13.503-3.353-19.746-3.874c-6.233-0.367-11.904,0.082-16.477,1.727c-4.612,1.561-8.311,4.081-11.689,7.88
							c-7.117,8.407-9.233,17.702-6.729,27.545c2.842,9.92,10.188,20.273,20.525,27.981c10.2,7.8,22.463,13.735,35.518,17.102
							c3.21,1.031,6.575,1.536,9.922,2.091c1.638,0.24,3.411,0.701,4.932,0.779l4.468,0.178c1.477,0.026,2.986,0.297,4.436,0.177
							l4.324-0.48c2.922-0.031,5.679-0.973,8.474-1.645l2.102-0.489c0.686-0.237,1.353-0.567,2.031-0.838l4.067-1.639
							c2.69-1.194,5.271-2.85,7.942-4.236c5.085-3.518,10.2-7.265,14.749-12.145c4.685-4.622,8.938-10.016,12.834-15.683
							c1.963-2.828,3.801-5.765,5.557-8.72c0.815-1.488,1.741-2.983,2.468-4.454c0.742-1.375,1.621-3.191,1.965-3.929l0.437-0.932
							c5.134-10.981,18.196-15.72,29.177-10.587C2900.903,2646.671,2905.652,2659.441,2900.894,2670.313z"/>
					</g>
				</g>
			</g>
			<g>
				<g>
					<g>
						<path style="fill:#371A45;" d="M2586.22,2804.905c-1.509,0-3.042-0.156-4.58-0.483c-11.86-2.52-19.438-14.175-16.919-26.04
							c25.557-120.39,121.968-133.55,126.06-134.052c12.017-1.406,22.993,7.085,24.468,19.126
							c1.465,11.987-7.017,22.9-18.975,24.448c-3.237,0.459-69.79,11.025-88.594,99.599
							C2605.488,2797.825,2596.371,2804.905,2586.22,2804.905z"/>
					</g>
				</g>
			</g>
			<g>
				<g>
					<g>
						<path style="fill:#371A45;" d="M2523.113,2726.99c0.059-63.573-3.198-128.26-7.71-192.286
							c-4.758-64.131-11.394-128.167-21.14-191.689c-4.834-31.764-10.286-63.437-16.821-94.859
							c-6.467-31.434-13.66-62.727-22.278-93.586c-16.892-61.825-38.191-122.336-66.194-179.899l-0.054-0.109
							c-1.855-3.815-0.266-8.412,3.547-10.268c3.574-1.739,7.854-0.424,9.905,2.881c34.473,56.013,59.075,117.474,78.376,179.91
							c9.807,31.231,18.149,62.854,25.757,94.624c7.673,31.763,14.243,63.754,20.183,95.844
							c11.96,64.18,20.764,128.849,27.671,193.703c3.45,32.431,6.113,64.938,8.228,97.496c2.092,32.647,3.777,64.97,4.446,98.162
							c0.244,12.126-9.387,22.154-21.514,22.398c-12.126,0.244-22.153-9.388-22.397-21.514c-0.002-0.118-0.005-0.235-0.005-0.352
							V2726.99z"/>
					</g>
				</g>
			</g>
			<g>
				<g>
					<g>
						<path style="fill:#996250;" d="M1376.556,1835.198c0,0,367.345,40.425,730.352,345.897s438.163,545.856,438.163,545.856
							s39.189-68.015,56.08-145.563c0,0-170.997-339.193-500.418-562.664s-608.608-265.613-608.608-265.613
							S1416.513,1799.669,1376.556,1835.198z"/>
					</g>
				</g>
			</g>
			<g style="opacity:0.6;">
				<g>
					<g>
						<path style="fill:#FFFFFF;" d="M2557.366,2703.388c9.515-23.499,19.109-51.499,25.528-80.943
							c0,0-170.969-339.201-500.395-562.664c-329.426-223.463-608.619-265.604-608.619-265.604s-33.985,20.95-68.429,45.466
							c-18.701-3.341-28.906-4.439-28.906-4.439c39.993-35.52,115.564-82.1,115.564-82.1s279.193,42.141,608.619,265.604
							s500.45,562.664,500.45,562.664C2590.368,2631.104,2570.301,2676.943,2557.366,2703.388z"/>
					</g>
				</g>
			</g>
			<g>
				<g>
					<g>
						<path style="fill:#371A45;" d="M2545.077,2748.909c-0.801,0-1.606-0.044-2.412-0.132c-8.667-0.957-15.947-6.953-18.55-15.273
							c-0.732-2.315-78.643-238.809-431.343-535.606c-353.184-297.204-715.02-340.474-718.633-340.874
							c-8.618-0.962-15.874-6.904-18.501-15.168c-2.627-8.267-0.156-17.305,6.328-23.066
							c40.923-36.392,115.488-82.434,118.643-84.377c4.424-2.72,9.668-3.799,14.79-3.013c11.602,1.75,287.91,45.459,617.661,269.153
							c330.337,224.094,500.61,556.897,507.7,570.954c2.266,4.497,2.92,9.634,1.846,14.556
							c-17.417,79.961-56.841,148.955-58.511,151.85C2560.151,2744.763,2552.865,2748.909,2545.077,2748.909z M1429.301,1821.548
							c113.945,22.246,402.519,99.36,691.743,342.747c274.268,230.791,386.138,423.994,425.923,509.389
							c10.591-23.813,22.881-55.498,30.967-89.263c-26.24-48.887-194.468-347.363-489.531-547.524
							c-290.83-197.295-544.658-251.885-591.772-260.701C1483.91,1784.236,1455.868,1802.276,1429.301,1821.548z"/>
					</g>
				</g>
			</g>
			<g>
				<g>
					<g>
						<path style="fill:#996250;" d="M2443.563,1777.786c0,0-55.317,260.148-387.49,503.611
							c-332.172,243.463-600.679,298.468-600.679,298.468s2.621-79.735-3.312-126.882c0,0,319.213-91.832,615.292-356.799
							c248.241-222.157,290.938-378.253,290.938-378.253L2443.563,1777.786z"/>
					</g>
				</g>
			</g>
			<g style="opacity:0.6;">
				<g>
					<g>
						<path style="fill:#FFFFFF;" d="M2443.549,1777.766c0,0-3.043,14.476-12.129,39.734l-38.002-26.667
							c-7.611-5.341-18.22-2.507-22.052,5.964c-18.575,41.067-83.069,156.332-278.589,331.332
							c-296.069,264.967-615.297,356.774-615.297,356.774c2.211,17.414-2.409,69.486-2.027,90.129
							c-13.084,3.387-20.064,4.832-20.064,4.832s2.63-79.75-3.317-126.883c0,0,319.228-91.808,615.297-356.774
							c248.242-222.188,290.922-378.301,290.922-378.301L2443.549,1777.766z"/>
					</g>
				</g>
			</g>
			<g>
				<g>
					<g>
						<path style="fill:#371A45;" d="M1455.395,2601.824c-5.137,0-10.161-1.802-14.16-5.176c-5.137-4.331-8.008-10.786-7.788-17.505
							c0.029-0.776,2.495-78.564-3.154-123.418c-1.353-10.728,5.317-20.845,15.708-23.843
							c3.149-0.908,318.154-93.809,606.729-352.061c239.116-213.992,283.994-366.247,284.424-367.761
							c1.924-6.855,7.07-12.388,13.774-14.778c6.719-2.388,14.17-1.416,20,2.676l85.254,59.856
							c7.202,5.059,10.693,13.928,8.862,22.539c-2.329,10.957-60.913,271.16-395.991,516.751
							c-332.222,243.506-598.096,299.99-609.248,302.275C1458.339,2601.677,1456.865,2601.824,1455.395,2601.824z
							 M1475.693,2468.631c2.153,27.725,2.388,60.127,2.192,82.94c75.469-20.762,300.938-94.19,565.21-287.886
							c278.774-204.326,358.594-420.947,375.278-476.755l-49.414-34.692c-23.818,55.872-95.356,188.857-286.943,360.31
							C1821.567,2345.628,1547.377,2445.296,1475.693,2468.631z"/>
					</g>
				</g>
			</g>
			<g>
				<g>
					<g>
						<g>
							<g>
								<path style="fill:#FFFFFF;" d="M2479.13,2360.454l-217.03-1.18l0.796-146.451l217.03,1.18
									c25.337,0.138,45.765,20.789,45.627,46.126l-0.297,54.699C2525.118,2340.164,2504.467,2360.592,2479.13,2360.454z"/>
							</g>
						</g>
					</g>
					<g>
						<g>
							<g>
								<polygon style="fill:#FFFFFF;" points="1720.344,2209.865 1719.548,2356.323 1456.602,2354.894 1456.667,2342.872 
									1497.471,2208.653 								"/>
							</g>
						</g>
					</g>
				</g>
				<g>
					<g>
						<g>
							<g>
								<path style="fill:#371A45;" d="M2479.394,2382.41c-0.132,0-0.254,0-0.386,0l-217.026-1.177
									c-5.825-0.029-11.396-2.373-15.493-6.514c-4.097-4.14-6.377-9.741-6.348-15.561l0.796-146.455
									c0.034-5.825,2.378-11.396,6.514-15.493c4.146-4.092,9.858-6.294,15.562-6.347l217.031,1.181
									c18.12,0.098,35.117,7.246,47.861,20.132c12.744,12.881,19.707,29.956,19.604,48.076l-0.293,54.692
									C2547.006,2352.225,2516.615,2382.41,2479.394,2382.41z M2284.174,2337.434l195.073,1.06c0.005,0,0.005,0,0.005,0
									c0.044,0,0.093,0,0.137,0c13.125,0,23.838-10.644,23.911-23.789l0.293-54.692c0.034-6.392-2.417-12.412-6.914-16.953
									c-4.492-4.546-10.483-7.065-16.87-7.1l-195.073-1.064L2284.174,2337.434z"/>
							</g>
						</g>
					</g>
					<g>
						<g>
							<g>
								<path style="fill:#371A45;" d="M1719.555,2378.279c-0.044,0-0.083,0-0.122,0l-262.949-1.426
									c-5.825-0.029-11.401-2.378-15.493-6.519c-4.097-4.141-6.382-9.741-6.348-15.566l0.068-12.021
									c0.015-2.119,0.332-4.229,0.947-6.26l40.801-134.224c2.813-9.253,11.348-15.571,21.011-15.571c0.039,0,0.078,0,0.122,0
									l222.876,1.216c12.124,0.068,21.899,9.951,21.836,22.075l-0.796,146.455
									C1741.445,2368.528,1731.625,2378.279,1719.555,2378.279z M1482.597,2333.079l215.112,1.167l0.561-102.544l-184.551-1.006
									L1482.597,2333.079z"/>
							</g>
						</g>
					</g>
				</g>
			</g>
			<g>
				<g>
					<g>
						<path style="fill:#FFFFFF;" d="M2402.423,2513.55l-635.21-3.454c-26.798-0.146-48.405-21.988-48.259-48.787l1.976-363.482
							c0.146-26.798,21.988-48.405,48.787-48.259l635.21,3.454c26.799,0.146,48.405,21.988,48.259,48.787l-1.976,363.481
							C2451.064,2492.09,2429.221,2513.696,2402.423,2513.55z"/>
					</g>
				</g>
			</g>
			<g style="opacity:0.2;">
				<g>
					<g>
						<path style="fill:#371A45;" d="M2451.656,2386.775l-0.427,78.499c-0.146,26.789-22.002,48.408-48.791,48.263l-635.242-3.454
							c-26.789-0.146-48.409-22.002-48.263-48.791l0.427-78.499c-0.146,26.789,21.474,48.645,48.263,48.791l635.242,3.454
							C2429.654,2435.183,2451.51,2413.563,2451.656,2386.775z"/>
					</g>
				</g>
			</g>
			<g>
				<g>
					<g>
						<path style="fill:#371A45;" d="M2402.685,2535.51c-0.127,0-0.254,0-0.381,0l0,0l-635.21-3.457
							c-18.828-0.103-36.484-7.529-49.726-20.913c-13.237-13.384-20.474-31.123-20.371-49.951l1.977-363.476
							c0.098-18.828,7.524-36.49,20.913-49.732c13.384-13.237,31.338-20.356,49.951-20.371l635.205,3.452
							c18.828,0.103,36.489,7.529,49.731,20.918c13.237,13.384,20.474,31.123,20.371,49.951l-1.978,363.477
							C2472.958,2504.143,2441.371,2535.51,2402.685,2535.51z M2402.538,2491.594c0.049,0,0.093,0,0.142,0
							c14.585,0,26.494-11.821,26.572-26.426l1.978-363.477c0.039-7.1-2.69-13.784-7.681-18.828
							c-4.99-5.049-11.646-7.847-18.745-7.885l-635.205-3.452c-0.054,0-0.102,0-0.151,0c-7.041,0-13.667,2.725-18.677,7.676
							c-5.044,4.99-7.842,11.65-7.881,18.745l-1.978,363.482c-0.039,7.1,2.686,13.784,7.676,18.828
							c4.99,5.044,11.645,7.842,18.745,7.881L2402.538,2491.594z"/>
					</g>
				</g>
			</g>
			<g>
				<g>
					<g>
						<path style="fill:#371A45;" d="M2402.685,2535.51c-0.127,0-0.254,0-0.381,0l0,0l-518.755-2.822
							c-38.867-0.215-70.308-32.002-70.098-70.869l1.977-363.477c0.098-18.823,7.524-36.484,20.913-49.726
							c13.291-13.145,30.874-20.371,49.551-20.371c0.137,0,0.264,0,0.4,0l518.75,2.817c18.828,0.103,36.489,7.529,49.731,20.918
							c13.237,13.384,20.474,31.123,20.371,49.951l-1.978,363.477C2472.958,2504.143,2441.371,2535.51,2402.685,2535.51z
							 M2402.538,2491.594c0.044,0,0.093,0,0.142,0c14.585,0,26.494-11.821,26.572-26.426l1.978-363.477
							c0.039-7.1-2.69-13.784-7.681-18.828c-4.99-5.049-11.646-7.847-18.745-7.885l-518.75-2.818c-0.054,0-0.102,0-0.151,0
							c-7.041,0-13.667,2.725-18.677,7.676c-5.044,4.99-7.842,11.646-7.881,18.74l-1.977,363.482
							c-0.078,14.653,11.772,26.635,26.421,26.714L2402.538,2491.594z"/>
					</g>
				</g>
			</g>
			<g>
				<g>
					<g>
						<g>
							<path style="fill:#22A7F0;" d="M2328.369,2262.631c0.235,8.518-9.844,77.615-9.844,77.615s-21.784,0.601-48.533,1.339
								c-33.418,0.922-61.464-32.931-62.642-75.614c-1.178-42.683,24.958-78.031,58.376-78.954
								c22.553-0.622,48.533-1.339,48.533-1.339S2327.986,2248.753,2328.369,2262.631z"/>
						</g>
					</g>
				</g>
				<g>
					<g>
						<g>
							<path style="fill:#137CE5;" d="M2328.369,2262.631c0.235,8.518-9.844,77.615-9.844,77.615s-21.784,0.601-48.533,1.339
								c-33.418,0.922-61.464-32.931-62.642-75.614c-1.178-42.683,24.958-78.031,58.376-78.954
								c22.553-0.622,48.533-1.339,48.533-1.339S2327.986,2248.753,2328.369,2262.631z"/>
						</g>
					</g>
				</g>
				<g>
					<g>
						<g>
							<path style="fill:#371A45;" d="M2268.681,2357.488c-41.348,0-75.806-40.42-77.212-91.079
								c-1.416-51.372,31.699-94.106,73.818-95.273l33.892-0.933c16.045-0.371,30.376,10.752,33.682,26.621
								c7.319,35.01,11.152,57.007,11.387,65.361v0.005c0.063,2.461,0.225,8.218-7.891,65.601
								c-2.295,16.206-15.845,28.291-32.222,28.74l-33.701,0.933C2269.848,2357.479,2269.262,2357.488,2268.681,2357.488z
								 M2300.097,2201.956c-0.015,0-0.029,0.005-0.044,0.005l-33.892,0.933c-24.609,0.679-43.872,28.779-42.935,62.637
								c0.923,33.442,21.211,60.191,45.42,60.191c0.303,0,0.605-0.005,0.908-0.015l33.706-0.933c0.84-0.019,1.528-0.625,1.641-1.435
								c7.104-50.215,7.573-59.014,7.588-60.347c-0.161-4.839-3.057-23.018-10.723-59.673
								C2301.601,2202.517,2300.903,2201.956,2300.097,2201.956z"/>
						</g>
					</g>
				</g>
				<g>
					<g>
						<g>
							
								<ellipse transform="matrix(0.9996 -0.0276 0.0276 0.9996 -61.5394 64.7557)" style="fill:#22A7F0;" cx="2316.392" cy="2262.961" rx="60.532" ry="77.313"/>
						</g>
					</g>
				</g>
				<g style="opacity:0.7;">
					<g>
						<g>
							<path style="fill:#FFFFFF;" d="M2376.038,2277.211c-6.719-34.937-31.751-60.586-60.886-59.767
								c-29.253,0.813-52.862,27.901-57.563,63.247c-1.003-5.154-1.58-10.526-1.734-16.055
								c-1.127-42.688,25.01-78.029,58.424-78.942c33.415-0.913,61.446,32.894,62.632,75.586
								C2377.068,2266.749,2376.756,2272.078,2376.038,2277.211z"/>
						</g>
					</g>
				</g>
				<g>
					<g>
						<g>
							<path style="fill:#137CE5;" d="M2318.546,2340.224c-33.417,0.972-61.505-32.897-62.691-75.588
								c-0.248-9.81,0.908-19.196,3.281-27.931c9.505,28.774,32.135,48.728,57.881,47.987c25.747-0.741,47.171-21.817,55.084-51.014
								c2.864,8.508,4.559,17.852,4.81,27.602C2378.097,2303.97,2351.961,2339.311,2318.546,2340.224z"/>
						</g>
					</g>
				</g>
				<g>
					<g>
						<g>
							<path style="fill:#371A45;" d="M2317.216,2356.15c-41.353,0-75.815-40.425-77.212-91.079
								c-1.416-51.372,31.699-94.106,73.813-95.273c42.192-1.172,77.539,39.683,78.965,91.055l0,0
								c1.416,51.372-31.699,94.106-73.818,95.273C2318.383,2356.14,2317.797,2356.15,2317.216,2356.15z M2315.605,2201.541
								c-0.303,0-0.605,0.005-0.908,0.014c-24.609,0.679-43.872,28.779-42.935,62.637c0.928,33.862,21.787,60.972,46.328,60.176
								c24.609-0.679,43.872-28.779,42.935-62.637l0,0C2360.102,2228.289,2339.814,2201.541,2315.605,2201.541z"/>
						</g>
					</g>
				</g>
			</g>
			<g>
				<g>
					<g>
						<path style="fill:#371A45;" d="M2113.09,2526.878c-0.044,0-0.083,0-0.127,0c-12.124-0.068-21.904-9.951-21.836-22.08
							l0.757-138.662c0.088-16.558-7.886-32.207-21.333-41.86l-20.347-14.604c-24.985-17.935-39.81-47.012-39.644-77.774
							l0.986-181.01c0.068-12.134,10.146-21.836,22.08-21.841c12.124,0.068,21.904,9.951,21.836,22.08l-0.986,181.011
							c-0.088,16.552,7.891,32.202,21.338,41.86l20.347,14.604c24.985,17.935,39.805,47.007,39.639,77.774l-0.757,138.667
							C2134.975,2517.127,2125.156,2526.878,2113.09,2526.878z"/>
					</g>
				</g>
			</g>
			<g>
				<g>
					<g>
						<g>
							<path style="fill:#FFFFFF;" d="M2630.935,1410.542c-49.051,112.685-126.891,213.679-229.975,291.381
								c-21.029,15.834-43.022,30.698-66.05,44.475c-11.183,6.737-22.704,13.192-34.428,19.481
								c-35.431,18.762-71.705,34.38-108.561,46.959c-31.739,10.918-63.934,19.526-96.256,25.983
								c-39.031,7.818-78.35,12.385-117.562,13.916c-14.303,0.511-28.576,0.647-42.819,0.41
								c-260.7-4.884-511.529-144.646-644.208-387.272c-195.524-357.371-60.537-802.463,301.373-994.171
								c69.73-36.873,142.836-61.796,216.775-75.172c8.626-1.645,17.337-3.048,26.063-4.268c23.318-3.422,46.671-5.734,69.998-6.933
								c53.952-2.757,107.798,0.364,160.504,9.015c52.701,8.591,104.391,22.764,153.977,42.178
								c15.77,6.163,31.335,12.839,46.7,20.087c23.017,10.873,45.503,22.841,67.415,36.094
								c109.253,65.664,202.866,159.936,267.974,279.005C2714.338,977.277,2717.423,1211.838,2630.935,1410.542z"/>
						</g>
					</g>
					<g>
						<g>
							<path style="fill:#371A45;" d="M1948.769,1855.235c-4.521,0-9.028-0.037-13.521-0.112
								c-270.205-5.063-517.7-153.853-645.908-388.301c-94.438-172.612-115.43-371.04-59.111-558.733
								c56.773-189.192,185.083-344.79,361.299-438.13c68.75-36.36,141.875-61.719,217.344-75.371
								c8.237-1.572,16.797-2.974,26.143-4.28c23.252-3.413,46.86-5.752,70.166-6.951c53.574-2.734,107.72,0.303,160.932,9.04
								c52.715,8.594,104.658,22.822,154.37,42.288c15.991,6.245,31.743,13.022,46.826,20.137
								c23.506,11.106,46.25,23.284,67.593,36.191c112.759,67.771,205.674,164.507,268.687,279.746
								c109.009,199.216,119.634,432.695,29.16,640.571l0,0c-50.161,115.237-129.902,216.267-230.596,292.168
								c-21.333,16.06-43.613,31.062-66.226,44.592c-10.371,6.245-21.66,12.634-34.512,19.529
								c-35.039,18.552-71.66,34.392-108.857,47.087c-31.157,10.718-63.628,19.482-96.509,26.05
								c-38.481,7.708-78.14,12.402-117.871,13.953C1968.412,1855.059,1958.564,1855.235,1948.769,1855.235z M1943.383,386.333
								c-12.686,0-25.356,0.322-37.998,0.969c-23.183,1.191-46.67,3.518-69.81,6.914c-9.297,1.301-17.788,2.693-25.981,4.255
								c-75.088,13.584-147.827,38.809-216.221,74.978c-175.268,92.842-302.896,247.603-359.36,435.774
								c-56.016,186.672-35.132,384.023,58.794,555.703c127.529,233.208,373.726,381.208,642.515,386.245
								c14.131,0.229,28.511,0.095,42.71-0.41c39.512-1.541,78.965-6.211,117.246-13.877c32.705-6.536,65.005-15.254,95.996-25.916
								c37.007-12.629,73.438-28.386,108.286-46.836c12.783-6.858,24.014-13.215,34.331-19.429
								c22.5-13.462,44.668-28.386,65.884-44.36c100.151-75.493,179.458-175.977,229.351-290.591l0,0
								c89.985-206.748,79.414-438.96-29.004-637.1c-62.676-114.624-155.093-210.845-267.256-278.259
								c-21.235-12.839-43.857-24.951-67.246-35.999c-15-7.078-30.669-13.818-46.572-20.032
								c-49.458-19.365-101.128-33.518-153.574-42.068C2025.092,389.668,1984.174,386.333,1943.383,386.333z"/>
						</g>
					</g>
				</g>
				<g>
					<g>
						<g>
							<path style="fill:#E8E8E8;" d="M1291.078,1465.856c132.657,242.655,383.524,382.428,644.22,387.272
								c14.245,0.255,28.508,0.122,42.79-0.401c39.224-1.514,78.532-6.109,117.562-13.897c32.323-6.484,64.535-15.072,96.251-25.979
								c36.88-12.571,73.136-28.19,108.596-46.956c11.692-6.327,23.214-12.753,34.424-19.47
								c23.03-13.794,44.994-28.696,66.036-44.515c103.083-77.703,180.947-178.667,229.988-291.389
								c26.957-61.898,45.223-127.327,54.18-194.25c-49.295,106.48-124.68,201.771-223.021,275.908
								c-21.01,15.877-43.007,30.72-66.037,44.515c-11.164,6.731-22.686,13.158-34.424,19.47
								c-35.461,18.766-71.716,34.384-108.55,46.971c-31.762,10.892-63.928,19.494-96.251,25.978
								c-39.029,7.787-78.385,12.369-117.562,13.898c-14.328,0.508-28.591,0.642-42.836,0.386
								c-260.696-4.844-511.517-144.604-644.22-387.272c-77.452-141.541-102.99-296.839-83.174-444.671
								C1175.414,1013.414,1175.655,1254.929,1291.078,1465.856z"/>
						</g>
					</g>
				</g>
				<g>
					<g>
						<g>
							<path style="fill:#371A45;" d="M1948.759,1868.472c-4.59,0-9.17-0.039-13.731-0.115
								c-274.971-5.151-526.821-156.577-657.305-395.183c-96.147-175.742-117.52-377.778-60.171-568.889
								c57.798-192.612,188.408-351.013,367.778-446.023c69.961-37.002,144.38-62.805,221.182-76.702
								c8.335-1.589,17.105-3.025,26.665-4.363c23.574-3.462,47.603-5.842,71.323-7.061c54.521-2.783,109.614,0.31,163.755,9.197
								c53.623,8.743,106.47,23.218,157.056,43.025c16.26,6.353,32.29,13.247,47.646,20.493
								c23.921,11.301,47.065,23.691,68.794,36.833c114.741,68.962,209.312,167.424,273.452,284.722
								c110.981,202.83,121.802,440.552,29.683,652.207l0,0c-51.074,117.324-132.256,220.183-234.771,297.456
								c-21.704,16.345-44.38,31.611-67.393,45.381c-10.527,6.34-22.002,12.834-35.049,19.834
								c-35.718,18.911-72.988,35.032-110.845,47.949c-31.68,10.898-64.727,19.822-98.188,26.506
								c-39.16,7.842-79.521,12.62-119.946,14.197C1968.735,1868.294,1958.72,1868.472,1948.759,1868.472z M1943.388,399.573
								c-12.466,0-24.912,0.315-37.329,0.95c-22.764,1.169-45.83,3.455-68.56,6.792c-9.165,1.282-17.451,2.639-25.425,4.16
								c-73.872,13.364-145.322,38.145-212.51,73.677c-172.109,91.167-297.432,243.125-352.871,427.878
								c-54.99,183.252-34.487,376.997,57.725,545.542c125.259,229.055,367.1,374.417,631.147,379.365
								c13.882,0.239,28.018,0.098,41.992-0.403c38.774-1.514,77.524-6.101,115.117-13.63c32.139-6.418,63.857-14.983,94.297-25.452
								c36.377-12.415,72.163-27.893,106.392-46.018c12.524-6.719,23.569-12.969,33.696-19.07
								c22.134-13.242,43.906-27.903,64.751-43.596c98.325-74.116,176.196-172.773,225.176-285.298l0,0
								c88.34-202.966,77.964-430.94-28.477-625.461c-61.558-112.568-152.314-207.063-262.466-273.267
								c-20.879-12.627-43.101-24.521-66.079-35.378c-14.722-6.946-30.112-13.564-45.737-19.67
								c-48.599-19.028-99.36-32.932-150.884-41.333C2023.661,402.847,1983.456,399.573,1943.388,399.573z M2630.937,1410.542h0.049
								H2630.937z"/>
						</g>
					</g>
				</g>
				<g>
					<g>
						<g>
							<path style="fill:#371A45;" d="M1948.754,1875.218c-4.629,0-9.243-0.039-13.838-0.115
								c-277.397-5.198-531.47-157.969-663.11-398.694c-97.021-177.334-118.584-381.209-60.713-574.063
								c58.315-194.353,190.102-354.182,371.079-450.046c70.581-37.327,145.654-63.359,223.14-77.375
								c8.384-1.599,17.256-3.054,26.934-4.407c23.735-3.486,47.979-5.889,71.909-7.117c54.976-2.808,110.571,0.31,165.19,9.277
								c54.087,8.816,107.397,23.42,158.428,43.398c16.396,6.406,32.573,13.364,48.062,20.674
								c24.131,11.401,47.48,23.901,69.409,37.163c115.747,69.568,211.162,168.911,275.879,287.258
								c111.992,204.67,122.91,444.553,29.946,658.132v0.003c-51.533,118.389-133.447,222.178-236.89,300.149
								c-21.899,16.489-44.775,31.892-67.993,45.784c-10.605,6.389-22.178,12.937-35.322,19.99
								c-36.064,19.094-73.662,35.356-111.855,48.389c-31.948,10.991-65.288,19.993-99.043,26.736
								c-39.507,7.913-80.225,12.732-121.011,14.324C1968.901,1875.037,1958.798,1875.218,1948.754,1875.218z M1943.383,406.316
								c-12.344,0-24.678,0.315-36.982,0.942c-22.544,1.16-45.401,3.423-67.925,6.731c-9.097,1.272-17.276,2.61-25.142,4.111
								c-73.247,13.252-144.043,37.805-210.62,73.015c-170.493,90.313-294.644,240.842-349.561,423.853
								c-54.468,181.509-34.155,373.416,57.183,540.366c124.102,226.936,363.721,370.955,625.357,375.857
								c13.75,0.229,27.768,0.093,41.626-0.398c38.394-1.499,76.787-6.042,114.033-13.503c31.841-6.362,63.271-14.846,93.423-25.217
								c36.06-12.305,71.514-27.642,105.435-45.601c12.393-6.648,23.34-12.844,33.374-18.884
								c21.943-13.132,43.516-27.656,64.17-43.208c97.397-73.416,174.531-171.14,223.052-282.603v0.002
								c87.5-201.042,77.217-426.853-28.213-619.534c-60.981-111.521-150.894-205.134-260.024-270.723
								c-20.698-12.517-42.71-24.302-65.483-35.061c-14.58-6.88-29.829-13.438-45.313-19.487
								c-48.159-18.855-98.457-32.634-149.517-40.957C2022.929,409.563,1983.095,406.316,1943.383,406.316z M2630.937,1410.542
								h0.049H2630.937z"/>
						</g>
					</g>
				</g>
				<g>
					<g>
						<g>
							<path style="fill:#371A45;" d="M2533.872,1572.287c-406.699,337.506-1017.725,175.837-1097.027-338.262
								c-53.953-349.762,251.643-670.892,595.592-699.496c250.331-20.819,504.279,66.834,644.386,441.085
								c0,0,36.096,175.043-1.543,296.987c-37.639,121.944-95.141,234.22-95.141,234.22L2533.872,1572.287z"/>
						</g>
					</g>
				</g>
				<g>
					<g>
						<g>
							<path style="fill:#220F2D;" d="M1436.866,1234.028c79.288,514.087,690.327,675.748,1097.012,338.278l9.366-13.281
								c-470.333,126.059-973.093-114.47-1063.076-632.815C1437.781,1020.886,1420.234,1126.09,1436.866,1234.028z"/>
						</g>
					</g>
				</g>
				<g>
					<g>
						<g>
							<path style="fill:#371A45;" d="M2053.827,1844.461c-159.883,0-314.224-47.09-438.052-135.945
								c-150.674-108.12-246.05-267.207-275.82-460.063c-27.339-177.185,23.735-358.694,143.818-511.086
								c133.34-169.216,336.479-280.515,543.399-297.725c114.956-9.558,220.327,2.058,313.188,34.536l1.904,0.666l1.729,1.038
								c115.444,69.387,210.566,168.425,275.078,286.409c111.646,204.033,122.529,443.169,29.858,656.084l0,0
								c-51.372,118.022-133.037,221.489-236.157,299.219c-21.831,16.44-44.634,31.794-67.783,45.645
								c-10.581,6.372-22.119,12.903-35.229,19.937c-35.942,19.031-73.428,35.244-111.504,48.237l-2.964,0.759
								C2148.095,1840.408,2100.707,1844.461,2053.827,1844.461z M2103.647,475.652c-23.896,0-48.306,1.033-73.223,3.105
								c-196.265,16.323-389.097,122.08-515.82,282.9c-113.267,143.747-161.519,314.502-135.859,480.808
								c28.125,182.195,118.003,332.327,259.917,434.16c151.235,108.523,351.021,151.179,548.369,117.141
								c35.625-12.244,70.698-27.458,104.268-45.232c12.441-6.672,23.423-12.888,33.486-18.95
								c22.012-13.169,43.652-27.742,64.37-43.342c97.72-73.657,175.107-171.704,223.789-283.533l0,0
								c87.793-201.709,77.476-428.267-28.306-621.582c-60.859-111.299-150.435-204.812-259.136-270.561
								C2258.32,487.334,2183.954,475.652,2103.647,475.652z M2630.937,1410.542h0.049H2630.937z"/>
						</g>
					</g>
				</g>
				<g>
					<g>
						<g>
							<path style="fill:#371A45;" d="M2053.74,1769.432c-83.647,0-166.807-14.602-245.679-44.519
								c-212.866-80.737-355.239-258.569-390.61-487.896c-24.414-158.24,21.187-320.312,128.398-456.362
								c118.989-151.003,300.283-250.325,484.961-265.683c318.223-26.455,541.768,126.204,664.395,453.765l0.84,2.917
								c1.519,7.349,36.67,181.416-2.007,306.736c-37.715,122.175-94.048,232.732-96.431,237.378l-1.44,2.383l-47.764,67.583
								l-1.997,1.658C2402.699,1706.646,2227.172,1769.432,2053.74,1769.432z M2098.5,551.348c-21.001,0-42.476,0.913-64.438,2.739
								c-174.023,14.473-345.01,108.252-457.388,250.862c-100.396,127.405-143.164,278.723-120.435,426.084
								c33.159,214.961,166.465,381.597,365.737,457.18c228.481,86.665,495.464,37.051,697.373-129.385l43.931-62.158
								c6.25-12.395,58.638-117.722,93.252-229.858c33.931-109.949,4.604-269.05,1.353-285.808
								C2550.585,695.608,2362.587,551.348,2098.5,551.348z M2533.871,1572.288h0.049H2533.871z"/>
						</g>
					</g>
				</g>
				<g>
					<g>
						<g>
							<path style="fill:#FFFFFF;" d="M1104.913,1230.67c4.459,144.789,94.899,263.825,202.039,265.85
								c107.14,2.025,190.373-113.719,185.914-258.508c-0.01-0.907-0.066-1.869-0.126-2.782
								c-5.49-143.532-95.526-261.068-201.913-263.068c-82.766-1.569-151.263,67.153-176.102,165.232
								C1107.428,1166.273,1103.902,1197.743,1104.913,1230.67z"/>
						</g>
					</g>
				</g>
				<g>
					<g>
						<g>
							<path style="fill:#E8E8E8;" d="M1104.913,1230.67c4.459,144.789,94.899,263.825,202.039,265.85
								c107.14,2.025,190.373-113.719,185.914-258.508c-0.01-0.907-0.066-1.869-0.126-2.782
								c-11.321,14.635-29.203,28.921-54.192,23.521c-43.768-9.479-124.703-104.06-124.703-104.06s-86.301-8.063-199.119-17.297
								C1107.428,1166.273,1103.902,1197.743,1104.913,1230.67z"/>
						</g>
					</g>
				</g>
				<g>
					<g>
						<g>
							<path style="fill:#371A45;" d="M1309.775,1518.492c-1.074,0-2.153-0.01-3.237-0.032
								c-118.486-2.236-218.789-131.035-223.594-287.112l0,0c-2.769-89.993,25.869-172.197,78.574-225.537
								c36.846-37.28,81.484-56.55,129.702-55.603c118.486,2.234,218.789,131.033,223.594,287.112
								c2.768,89.993-25.869,172.197-78.579,225.537C1400.224,1499.3,1356.562,1518.492,1309.775,1518.492z M1126.84,1229.995
								c4.097,133.047,85.078,242.754,180.527,244.558c35.581,0.662,69.443-14.045,97.632-42.566
								c43.643-44.167,68.286-116.433,65.918-193.315c-4.097-133.049-85.078-242.756-180.527-244.558
								c-35.562-0.686-69.443,14.043-97.632,42.566C1149.115,1080.845,1124.472,1153.113,1126.84,1229.995z"/>
						</g>
					</g>
				</g>
				<g>
					<g>
						<g>
							
								<ellipse transform="matrix(0.9961 -0.0883 0.0883 0.9961 -105.7576 114.0379)" style="fill:#FFFFFF;" cx="1236.204" cy="1252.501" rx="146.016" ry="214.209"/>
						</g>
					</g>
				</g>
				<g>
					<g>
						<g>
							<path style="fill:#E8E8E8;" d="M1243.656,1466.225c-80.933-2.156-149.82-99.58-153.925-217.65
								c-0.473-12.815-0.089-25.354,0.952-37.498c24.058,80.655,79.774,138.868,142.687,140.483
								c71.045,1.817,127.977-69.223,138.824-165.503c5.974,22.105,9.639,45.784,10.511,70.335
								C1386.81,1374.461,1324.543,1468.375,1243.656,1466.225z"/>
						</g>
					</g>
				</g>
				<g>
					<g>
						<g>
							<path style="fill:#371A45;" d="M1246.41,1488.223c-1.123,0-2.241-0.015-3.364-0.044
								c-93.711-2.502-170.698-107.407-175.269-238.823v-0.002c-2.661-76.489,21.27-147.876,64.009-190.959
								c27.925-28.157,61.602-42.507,97.573-41.57c93.716,2.502,170.703,107.407,175.268,238.826
								c2.661,76.482-21.265,147.866-64.004,190.952C1313.569,1473.877,1281.059,1488.223,1246.41,1488.223z M1111.664,1247.828
								c3.643,104.666,64.346,194.629,132.554,196.45c23.398,0.64,46.045-9.263,65.229-28.604
								c34.365-34.644,53.54-93.896,51.294-158.499c-3.638-104.666-64.341-194.629-132.554-196.45
								c-23.53-0.664-46.045,9.258-65.224,28.596c-34.365,34.644-53.54,93.899-51.299,158.508V1247.828z"/>
						</g>
					</g>
				</g>
				<g style="opacity:0.5;">
					<g>
						<g>
							<path style="fill:#FFFFFF;" d="M1864.88,685.388c0,0,332.741-26.366,531.304,146.272c0.209,0.182,0.417,0.363,0.626,0.545
								c41.759,36.37,72.703,102.87,90.144,155.007c23.065,68.948,28.724,119.765,31.956,164.685
								c9.765,136.618-11.58,202.363-11.58,202.363c73.652-77.439,112.205-162.346,105.216-276.216
								c-0.719-11.223-1.881-22.772-3.453-34.59c-0.353-2.724-0.764-5.416-1.22-8.124c0.058-0.03,0.027-0.088-0.05-0.159
								c-4.891-23.72-12.511-54.655-24.062-88.849c-34.774-103.151-105.008-236.039-243.084-290.676
								C2082.498,553.481,1852.447,671.881,1864.88,685.388z"/>
						</g>
					</g>
				</g>
				<g style="opacity:0.5;">
					<g>
						<g>
							
								<ellipse transform="matrix(0.201 -0.9796 0.9796 0.201 295.5023 2435.8416)" style="fill:#FFFFFF;" cx="1640.906" cy="1036.78" rx="114.374" ry="99.568"/>
						</g>
					</g>
				</g>
				<g style="opacity:0.5;">
					<g>
						<g>
							
								<ellipse transform="matrix(0.2911 -0.9567 0.9567 0.2911 -52.1332 2411.0198)" style="fill:#FFFFFF;" cx="1600.878" cy="1240.689" rx="47.246" ry="41.1"/>
						</g>
					</g>
				</g>
			</g>
		</g>
		<g style="opacity:0.2;">
			<g>
				<g>
					<path style="fill:#371A45;" d="M2696.146,3500.634c-11.017,77.563-134.492,69.865-265.089,79.75
						c-130.652,9.83-264.798,16.182-278.254-103.895c-13.456-120.022-35.95-384.854-155.625-516.049
						c0,0-104.224,278.197-133.476,468.638c0,0,52.592,60.233,41.71,113.149c-10.882,52.861-162.784,83.82-342.707,68.678
						c-179.868-15.086-222.209-22.344-163.419-445.549c0,0,48.617-500.83,56.104-585.494
						c7.542-84.664-13.033-197.698-13.033-197.698s-53.763,155.01-78.964,246.604c0,0,87.448,141.614-50.288,162.055
						c0,0,17.18,81.285-166.448,101.422c-149.133,16.372-192.59-138.837-172.842-297.709
						c23.382,61.336,62.466,132.365,120.916,145.09c106.318,23.196,93.592-120.043,171.196-126.429
						c69.53-5.715,98.655-304.028,229.312-587.352c16.887-36.524,70.757-29.534,78.228,9.977
						c6.992,36.709,12.411,79.942,12.167,124.791c-0.664,122.196-139.323,1240.998-82.419,1316.076
						c56.904,75.078,405.917,58.202,309.878-68.473l-87.168-11.398c0,0,109.425-406.956,54.242-485.483c0,0,18.93,1.64,50.158,3.182
						c-60.785-21.221-117.815-53.292-167.077-94.733c-3.779-3.179-0.305-9.242,4.383-7.689
						c114.273,37.847,195.247,49.725,388.538,31.736c148.239-13.778,241.296-48.584,318.767-82.68
						c12.625-5.557,23.669,10.354,14.088,20.277c-34.704,35.945-74.572,66.899-117.877,91.899
						c18.812-6.815,36.202-14.68,51.676-23.654c0,0-11.311,70.975-64.312,126.351c-22.304,23.21-33.456,54.879-28.963,86.798
						c10.621,75.979,28.805,214.911,36.265,326.94c3.503,52.281,46.045,93.245,98.409,94.627
						c112.467,2.863,286.402-1.462,301.844-54.957c0,0,1.154-0.158,3.241-0.367
						C2686.95,3445.193,2700.713,3468.379,2696.146,3500.634z"/>
				</g>
			</g>
		</g>
	</g>
</g>
</svg>
