<svg xmlns="http://www.w3.org/2000/svg" viewBox="0 0 1024 1024"><defs><style>.cls-1{fill:#27aae1;}.cls-2{fill:#ec008c;}.cls-3{fill:#808285;}.cls-4{fill:#ed1c24;}.cls-5{fill:#fff200;}.cls-6{fill:#a93e97;}.cls-7{fill:#f7941d;}.cls-8{fill:#00a79d;}.cls-9{fill:#00aeef;}.cls-10{fill:#f15a29;}.cls-11{fill:#231f20;}</style></defs><title>dark_logo</title><g id="Layer_1" data-name="Layer 1"><polygon class="cls-1" points="685.37 273.3 676.68 278.97 676.68 228.61 685.37 273.3"/><polygon class="cls-2" points="676.68 625.21 676.68 554.43 647.6 538.15 676.68 465.16 698.86 511.18 676.68 625.21"/><polygon class="cls-3" points="287.89 556.48 266.7 550.6 286.53 535.51 287.89 556.48"/><polygon class="cls-3" points="753.83 228.61 685.37 273.3 676.68 228.61 753.83 228.61"/><polygon class="cls-4" points="564.38 352.27 543.27 366.06 535.77 359.17 535.77 306.4 564.38 352.27"/><polygon class="cls-5" points="612.92 625.21 482.74 560.73 535.77 545.5 612.92 625.21"/><polygon class="cls-5" points="277.35 393.72 266.7 420.06 266.7 229.25 277.35 393.72"/><polygon class="cls-6" points="753.83 228.61 753.83 625.21 715.26 426.91 753.83 228.61"/><polygon class="cls-6" points="478.38 306.4 478.38 408.42 450.82 344.41 478.38 306.4"/><polygon class="cls-7" points="612.92 229.25 612.92 320.6 564.38 352.27 535.77 306.4 612.92 229.25"/><polygon class="cls-8" points="753.83 625.21 676.68 625.21 698.86 511.18 753.83 625.21"/><polygon class="cls-8" points="450.82 344.41 418.72 388.69 401.23 382.91 401.23 229.25 450.82 344.41"/><polygon class="cls-9" points="343.85 229.25 343.85 491.94 286.53 535.51 277.35 393.72 343.85 229.25"/><polygon class="cls-8" points="286.53 535.51 266.7 550.6 266.7 420.06 277.35 393.72 286.53 535.51"/><polygon class="cls-9" points="753.83 625.21 698.86 511.18 715.26 426.91 753.83 625.21"/><polygon class="cls-10" points="343.85 229.25 277.35 393.72 266.7 229.25 343.85 229.25"/><polygon class="cls-10" points="676.68 465.16 647.6 538.15 612.92 518.72 612.92 625.21 535.77 545.5 612.92 430.1 676.68 465.16"/><polygon class="cls-7" points="482.74 560.73 394.57 586.05 287.89 556.48 286.53 535.51 343.85 491.94 482.74 560.73"/><polygon class="cls-10" points="753.83 228.61 715.26 426.91 685.37 273.3 753.83 228.61"/><polygon class="cls-10" points="478.38 408.42 418.72 388.69 450.82 344.41 478.38 408.42"/><polygon class="cls-9" points="612.92 625.21 535.77 625.21 394.57 586.05 482.74 560.73 612.92 625.21"/><polygon class="cls-8" points="612.92 430.1 535.77 447.83 535.77 370.96 543.27 366.06 612.92 430.1"/><polygon class="cls-6" points="535.77 545.5 482.74 560.73 343.85 491.94 535.77 545.5"/><polygon class="cls-1" points="612.92 430.1 535.77 545.5 535.77 447.83 612.92 430.1"/><polygon class="cls-9" points="612.92 229.25 535.77 306.4 478.38 306.4 450.82 344.41 401.23 229.25 612.92 229.25"/><polygon class="cls-5" points="612.92 430.1 543.27 366.06 564.38 352.27 612.92 430.1"/><polygon class="cls-5" points="715.26 426.91 698.86 511.18 676.68 465.16 676.68 278.97 685.37 273.3 715.26 426.91"/><polygon class="cls-2" points="612.92 320.6 612.92 430.1 564.38 352.27 612.92 320.6"/><polygon class="cls-3" points="543.27 366.06 535.77 370.96 535.77 359.17 543.27 366.06"/><path class="cls-11" d="M384,819H372.26v-2.44q0-21.83-16.79-21.83h-8.85Q335.93,808,316.08,808t-30.76-12.44Q274.4,783.16,274.41,763a124.4,124.4,0,0,1,1.07-16.18h11.6A137.55,137.55,0,0,0,286,763.15q0,16.19,7.94,25.34t22,9.16q13,0,20.15-8t7.18-21.15q0-7.93-3.13-12.9t-9.54-5a10.17,10.17,0,0,0-8.55,4A16.29,16.29,0,0,0,319,764.83,52,52,0,0,0,320.51,776H309.83a32.12,32.12,0,0,1-2.14-12.06,24.09,24.09,0,0,1,6.1-16.71q6.1-6.8,16.64-6.79,11.46,0,18.09,8.09t6.64,20a43,43,0,0,1-2.9,16h3.67q11.29,0,16.33,7.33v-60.6H259.75V721H401.27v10.23H384Z"/><path class="cls-11" d="M502.94,739.79q0,9.32-5.57,15t-15.5,5.65q-12.21,0-18.24-8.39t-6-20.76H395.16V721H513.62v10.23H501.87A32.8,32.8,0,0,1,502.94,739.79Zm-42.29,87.94h-11.6l-41.52-21.22v-13q21.36-18.93,41.52-22.75v-.61q0-8.55-4.2-14t-12-5.5q-6.11,0-9.31,3.74t-3.21,10a54.11,54.11,0,0,0,.92,9.31H410.43a32.12,32.12,0,0,1-1.53-10.22q0-9.93,6.26-16.49t17.55-6.56q12.82,0,20.38,8.77a30.71,30.71,0,0,1,7.56,20.69q16.49.15,27.1,7.71a24.05,24.05,0,0,1,10.61,20.68q0,11.61-6.41,18t-17.25,6.41a23.51,23.51,0,0,1-3.06-.15v-11h2q13,0,13-13.28,0-9.15-7.32-13.66t-18.63-4.5Zm-11.6-11.91v-34.5q-15.42,4-31,18Zm32.82-65.49q4.89,0,7.56-2.83t2.67-7.86a34.6,34.6,0,0,0-1.07-8.39H468.59Q468.89,750.33,481.87,750.33Z"/><path class="cls-11" d="M593.77,731.25H576.52V819h-11.6l-47.79-36.48V769.26a126.77,126.77,0,0,1,22.75-16.64,95.83,95.83,0,0,1,25-10.38v-11h-57.4V721h86.25Zm-28.85,74V753.38q-19.39,6.25-37.56,22.44Z"/><path class="cls-11" d="M633.92,731.25H616.67V819H604.91V743.61q0-6-2.13-9.16c-1.43-2.14-4-3.2-7.64-3.2h-7.48V721h7.94a11.22,11.22,0,0,1,10.69,6.56,85.78,85.78,0,0,1-1.23-14.81v-4.58h11.61V721h17.25Z"/><path class="cls-11" d="M748.26,819h-11.6a123.77,123.77,0,0,1-3.36-29.31,105.1,105.1,0,0,1,3.36-26.56,78.12,78.12,0,0,1-26-11.14q-11.6-7.78-16.64-18.63-14.19,10.54-14.19,23.82,0,12.36,14.5,12.36a52.31,52.31,0,0,0,21.37-4.73,35.79,35.79,0,0,1,2.9,15.11q0,16.65-9.77,27.41t-27.48,10.76q-19.54,0-30.83-14.05t-11.3-36.33q0-2.29.3-7.17h11.61c-.11,1.42-.16,3.51-.16,6.25q0,18.33,7.94,29.62t22.44,11.3q12.83,0,19.47-7.56t6.64-20.23V777.5a49,49,0,0,1-15.88,2.44q-11,0-17.4-6t-6.41-16.41q0-15.11,12.51-26.25H627.81V721h133v10.23H705.51q11.15,18.16,44.12,24.57a117.55,117.55,0,0,0-4.88,33.89Q744.75,801.77,748.26,819Z"/></g></svg>