<svg id="Layer_1" data-name="Layer 1" xmlns="http://www.w3.org/2000/svg" viewBox="0 0 1920 1080"><defs><style>.cls-1{opacity:0.26;}.cls-2{fill:#7bcbb7;}.cls-3{fill:#005281;}.cls-4{fill:#475661;}.cls-5{fill:#fff;}.cls-6{fill:#feeb3c;}.cls-7{opacity:0.32;}.cls-12,.cls-8{fill:#c4c4c4;}.cls-9{opacity:0.38;}.cls-10{opacity:0.33;}.cls-11{opacity:0.31;}.cls-12{opacity:0.35;}</style></defs><title>hom-1</title><g class="cls-1"><path class="cls-2" d="M892.31,603.11a10.1,10.1,0,0,0,8.19,11.69L1015,635a10.09,10.09,0,0,0,11.69-8.19l.67-3.78a10.09,10.09,0,0,0-8.19-11.69l-114.53-20.2A10.09,10.09,0,0,0,893,599.32Z"/><path class="cls-2" d="M892.31,574.75a10.09,10.09,0,0,0,8.19,11.69L1015,606.64a10.1,10.1,0,0,0,11.69-8.19l.67-3.78A10.08,10.08,0,0,0,1019.2,583l-114.53-20.2A10.09,10.09,0,0,0,893,571Z"/><path class="cls-2" d="M892.31,546.4a10.1,10.1,0,0,0,8.19,11.69L1015,578.28a10.08,10.08,0,0,0,11.69-8.18l.67-3.79a10.09,10.09,0,0,0-8.19-11.69l-114.53-20.2A10.1,10.1,0,0,0,893,542.61Z"/><path class="cls-3" d="M923.36,628.37c0,17.3,16.56,31.32,37,31.32,17.47,0,32.11-10.26,36-24.05l-72.41-12.76A26.91,26.91,0,0,0,923.36,628.37Z"/><path class="cls-4" d="M901.7,489.31a45,45,0,0,1-28.06-9.24c-8.56,2.19-30.15,5.47-48.37-10.15-15.21-13-21.41-30.65-19-53.87,1.13-10.76,7.21-21.28,16.67-28.86a44.42,44.42,0,0,1,23.11-9.79c0-7.12,1.27-17.93,7.88-25.74,5.18-6.11,12.46-9.28,21.64-9.41,10.91-.16,29.21,3.71,29.77,31.22a6.39,6.39,0,1,1-12.77.26c-.27-13.27-5.33-18.89-16.82-18.7-5.39.07-9.33,1.66-12,4.86-5.56,6.54-5.17,18.78-4.55,22.95a6.4,6.4,0,0,1-7,7.3c-6.91-.79-14.62,1.76-21.17,7-6.82,5.47-11.17,12.85-12,20.24-2,19.24,2.47,32.45,14.57,42.83,17,14.59,38.47,7.07,39.38,6.74a6.42,6.42,0,0,1,6.57,1.35c6.56,6.16,15.85,9,26.15,8,11.33-1.08,22.16-6.63,27.6-14.15,13.47-18.61,11.78-43.26,11.76-43.51s0-.32,0-.48V264.28a6.39,6.39,0,1,1,12.77,0V418c.2,3.16,1.37,30.21-14.17,51.69C936,480.2,922,487.63,906.89,489.06,905.14,489.23,903.41,489.31,901.7,489.31Z"/><path class="cls-4" d="M812.66,423.11a6.48,6.48,0,0,1-1.38-.15c-10.27-2.26-29.69-14.1-29.68-42.75A43.16,43.16,0,0,1,804,341.93a43.44,43.44,0,0,1-10.81-20.45c-2.13-10.64.5-21.47,7.81-32.19,8.59-12.58,28.89-18.74,47.23-14.32,15.92,3.83,26.14,14.57,28,29.45A6.39,6.39,0,0,1,863.54,306c-1.62-12.76-12.19-17.16-18.34-18.64-13-3.13-28.12.95-33.68,9.1-5.29,7.74-7.26,15.28-5.86,22.4,2.39,12.19,13.83,19.89,14,20a6.39,6.39,0,0,1-2.46,11.64c-9.45,1.58-22.78,11.84-22.78,29.72,0,25.65,19.46,30.22,19.65,30.26a6.39,6.39,0,0,1-1.36,12.63Z"/><path class="cls-4" d="M909.65,317.26a34.52,34.52,0,0,1-4.31-.27c-12.56-1.59-21.72-10.33-23.91-22.83-2.23-12.71,3.31-25.59,13.17-30.64,6.9-3.53,13.33-4.24,19.13-2.13a21.43,21.43,0,0,1,11.74,11.14,6.39,6.39,0,0,1-11.74,5,8.73,8.73,0,0,0-4.47-4.2c-2.31-.8-5.28-.28-8.84,1.54-4.84,2.47-7.65,10-6.41,17.06.72,4.09,3.35,11.14,12.93,12.35,7.44.94,15.32-2.09,22.2-8.55C940,285.6,946.06,269,945,252.34a30,30,0,0,0-19-26.76c-10-4.07-21.66-3.08-27.67,2.36a19.39,19.39,0,0,0-6.22,17.82,6.39,6.39,0,0,1-10.5,6.23c-.5-.45-13.06-11.32-28-3.3-7.31,3.93-14.16,16.72-12.48,30.53a6.39,6.39,0,0,1-12.68,1.54c-2.15-17.68,6.06-36.3,19.1-43.32a35.75,35.75,0,0,1,32.12-1.38,31.54,31.54,0,0,1,10-17.59c9.77-8.84,26.27-10.74,41.06-4.72,16.06,6.53,25.89,20.31,27,37.8,1.27,20.63-6.17,40.64-19.91,53.53C929.41,313,919.53,317.26,909.65,317.26Z"/><path class="cls-4" d="M947.37,454.45a6.48,6.48,0,0,1-1.68-.23,6.39,6.39,0,0,1-4.49-7.83h0c1.58-5.84,4.59-22.83-.32-31.18a8.29,8.29,0,0,0-5.45-4.13c-6.27-1.57-11-.75-14,2.43-3.84,4-4.31,10.87-3.49,13.56a6.39,6.39,0,0,1-12.11,4.05c-.55-1.43-5.77-14.2-18.53-12.16-8.68,1.39-10.66,8.82-11.06,11.07-.84,4.67.63,9.08,3.56,10.73a6.39,6.39,0,0,1-6.26,11.14c-7.71-4.34-11.68-14-9.88-24.12,2-11.42,10.32-19.63,21.63-21.44a27.1,27.1,0,0,1,22,5.82,25.63,25.63,0,0,1,4.87-7.45c4.42-4.65,12.58-9.47,26.37-6a21.16,21.16,0,0,1,13.38,10.08c8.47,14.45,2.35,38.3,1.62,41A6.39,6.39,0,0,1,947.37,454.45Z"/><path class="cls-4" d="M951.54,395.48h0a6.38,6.38,0,0,1-6.35-6.42c.07-17.48.15-34-4.37-38.53-.66-.66-1.76-1.42-4.42-1.42-8.16,0-8.79,6.44-8.79,8.41a6.39,6.39,0,0,1-6.39,6.39h0a6.39,6.39,0,0,1-6.39-6.39c0-8.52,5.75-21.19,21.57-21.19,5.51,0,10,1.74,13.47,5.18,8.27,8.3,8.19,24.79,8.09,47.61A6.38,6.38,0,0,1,951.54,395.48Z"/><path class="cls-4" d="M1018,489.31c-1.71,0-3.44-.08-5.19-.25-15-1.43-29.13-8.86-36.74-19.38C960.53,448.2,961.7,421.15,961.9,418V264.28a6.39,6.39,0,1,1,12.77,0V418.2c0,.16,0,.32,0,.48s-1.62,25,11.76,43.51c5.44,7.52,16.27,13.07,27.6,14.15,10.3,1,19.59-1.87,26.16-8a6.38,6.38,0,0,1,6.59-1.34c.88.32,22.32,7.84,39.35-6.75,12.1-10.38,16.6-23.59,14.57-42.83-.77-7.4-5.13-14.77-12-20.24-6.55-5.25-14.27-7.81-21.17-7a6.39,6.39,0,0,1-7-7.32c.62-4.15,1-16.39-4.56-22.93-2.72-3.2-6.66-4.79-12-4.86h-.47c-11.19,0-16.08,5.62-16.35,18.71a6.39,6.39,0,0,1-12.77-.26c.56-27.51,18.81-31.39,29.77-31.22,9.18.13,16.47,3.29,21.65,9.41,6.6,7.81,7.87,18.62,7.88,25.74a44.44,44.44,0,0,1,23.11,9.78c9.46,7.59,15.53,18.11,16.67,28.87,2.44,23.22-3.77,40.83-19,53.87-18.22,15.61-39.81,12.33-48.37,10.15A45,45,0,0,1,1018,489.31Z"/><path class="cls-4" d="M1107,423.11a6.39,6.39,0,0,1-1.4-12.62c.92-.22,19.69-5.06,19.69-30.27,0-17.88-13.32-28.14-22.78-29.72a6.38,6.38,0,0,1-2.44-11.65c.1-.07,11.54-7.77,13.93-20,1.4-7.13-.57-14.66-5.85-22.4-5.57-8.15-20.68-12.23-33.69-9.1-6.15,1.48-16.72,5.88-18.34,18.64a6.39,6.39,0,0,1-12.68-1.61c1.89-14.88,12.11-25.62,28-29.45,18.34-4.42,38.64,1.74,47.23,14.32,7.31,10.72,9.94,21.55,7.81,32.19a43.44,43.44,0,0,1-10.81,20.45,43.16,43.16,0,0,1,22.36,38.28c0,28.65-19.41,40.49-29.68,42.75A6.55,6.55,0,0,1,1107,423.11Z"/><path class="cls-4" d="M1010.05,317.26c-9.88,0-19.76-4.23-28.24-12.18-13.74-12.89-21.18-32.9-19.9-53.53,1.08-17.49,10.91-31.27,27-37.8,14.8-6,31.3-4.12,41.06,4.72a31.63,31.63,0,0,1,10,17.59,35.75,35.75,0,0,1,32.12,1.38c13,7,21.25,25.64,19.1,43.32a6.39,6.39,0,1,1-12.68-1.54c1.68-13.81-5.17-26.6-12.48-30.53-15.09-8.13-27.82,3.18-28,3.3a6.39,6.39,0,0,1-10.51-6.23,19.54,19.54,0,0,0-6.22-17.82c-6-5.44-17.64-6.44-27.67-2.36a30,30,0,0,0-19,26.76c-1,16.62,5.06,33.26,15.89,43.42,6.89,6.46,14.78,9.49,22.2,8.55,9.58-1.21,12.22-8.26,12.94-12.35,1.24-7.1-1.57-14.59-6.41-17.06-3.56-1.82-6.54-2.34-8.84-1.54a8.79,8.79,0,0,0-4.48,4.21,6.35,6.35,0,0,1-8.35,3.37,6.43,6.43,0,0,1-3.39-8.41A21.47,21.47,0,0,1,1006,261.39c5.8-2.11,12.23-1.4,19.13,2.13,9.86,5.05,15.4,17.93,13.17,30.64-2.19,12.5-11.35,21.24-23.92,22.83A34.24,34.24,0,0,1,1010.05,317.26Z"/><path class="cls-4" d="M972.33,454.45a6.39,6.39,0,0,1-6.16-4.72c-.73-2.67-6.85-26.52,1.62-41a21.18,21.18,0,0,1,13.39-10.08c13.77-3.45,21.94,1.38,26.36,6a25.43,25.43,0,0,1,4.87,7.45,27.11,27.11,0,0,1,22-5.82,25.66,25.66,0,0,1,21.62,21.44c1.8,10.09-2.17,19.79-9.88,24.12a6.39,6.39,0,1,1-6.26-11.14c2.93-1.65,4.4-6.06,3.57-10.73-.41-2.25-2.39-9.68-11.07-11.07-12.74-2-18,10.74-18.54,12.2a6.38,6.38,0,0,1-12.09-4.09c.81-2.69.35-9.52-3.49-13.56-3-3.18-7.74-4-14-2.43a8.35,8.35,0,0,0-5.46,4.14c-4.9,8.36-1.79,25.73-.31,31.16a6.38,6.38,0,0,1-4.49,7.84A6.54,6.54,0,0,1,972.33,454.45Z"/><path class="cls-4" d="M968.16,395.48a6.39,6.39,0,0,1-6.39-6.36c-.1-22.82-.17-39.3,8.09-47.61,3.42-3.44,8-5.18,13.47-5.18,15.82,0,21.57,12.67,21.57,21.19a6.39,6.39,0,0,1-12.78.06c-.06-2.56-1-8.47-8.79-8.47-2.66,0-3.76.76-4.42,1.42-4.52,4.54-4.44,21.05-4.36,38.53a6.4,6.4,0,0,1-6.36,6.42Z"/><path class="cls-4" d="M1005,550.64a6.2,6.2,0,0,1-1-.09,6.38,6.38,0,0,1-5.26-7.34c.22-1.34,5.82-32.92,42.81-56.63a6.39,6.39,0,1,1,6.9,10.75c-32.26,20.68-37.06,47.69-37.11,48A6.38,6.38,0,0,1,1005,550.64Z"/><path class="cls-4" d="M909.78,532.39a6.4,6.4,0,0,1-5.92-4c-.12-.3-9.1-21.47-30.17-30.6a6.39,6.39,0,0,1,5.07-11.73c26,11.28,36.5,36.44,36.93,37.5a6.39,6.39,0,0,1-5.91,8.8Z"/><path class="cls-4" d="M966.8,540.35h0a4,4,0,0,1-4-4c0-.81.12-19.94,10.67-34.87A4,4,0,0,1,980,506.1c-9.06,12.81-9.21,30.09-9.21,30.26A4,4,0,0,1,966.8,540.35Z"/><path class="cls-4" d="M978.84,507.79A12.14,12.14,0,1,1,991,495.66,12.14,12.14,0,0,1,978.84,507.79Zm0-16.28a4.15,4.15,0,1,0,4.15,4.15A4.15,4.15,0,0,0,978.84,491.51Z"/><path class="cls-4" d="M952.9,540.35a4,4,0,0,1-4-4h0c0-.17-.15-17.45-9.21-30.26a4,4,0,1,1,6.52-4.6c10.55,14.92,10.67,34,10.67,34.86A4,4,0,0,1,952.9,540.35Z"/><path class="cls-4" d="M940.86,507.79A12.14,12.14,0,1,1,953,495.66,12.15,12.15,0,0,1,940.86,507.79Zm0-16.28a4.15,4.15,0,1,0,4.14,4.15A4.15,4.15,0,0,0,940.86,491.51Z"/><path class="cls-5" d="M1102.62,350a5.92,5.92,0,0,1-2.26-10.8c.1-.07,11.71-7.86,14.14-20.26,1.42-7.25-.57-14.9-5.93-22.75-5.66-8.3-21-12.47-34.18-9.29-6.27,1.51-17,6-18.7,19a5.92,5.92,0,1,1-11.74-1.49c1.86-14.68,11.94-25.27,27.67-29.05a50.3,50.3,0,0,1,7.6-1.21c-.26-12-6.43-22.42-13-25.94-15.19-8.19-28,2.91-28.51,3.38a5.93,5.93,0,0,1-9.71-5.79,20,20,0,0,0-6.36-18.28c-6.14-5.56-18-6.58-28.16-2.44-11.5,4.68-18.54,14.58-19.32,27.16-1.05,17,4.95,33.38,16,43.79,7,6.55,15,9.63,22.59,8.68,9.87-1.25,12.59-8.52,13.33-12.74,1.28-7.28-1.64-15-6.65-17.56-3.73-1.9-6.86-2.42-9.31-1.52a9.18,9.18,0,0,0-4.62,4.35,5.92,5.92,0,1,1-10.91-4.6,20.94,20.94,0,0,1,11.47-10.88c5.67-2.07,12-1.35,18.76,2.11,9.68,4.95,15.12,17.63,12.92,30.15a26.57,26.57,0,0,1-23.51,22.44,35.52,35.52,0,0,1-4.25.26c-9.76,0-19.53-4.19-27.92-12.05a59,59,0,0,1-7.92-9.25v43.4a19.32,19.32,0,0,1,9.12-2.09c15.48,0,21.1,12.39,21.1,20.72a5.92,5.92,0,0,1-11.84.05c-.06-2.69-1.08-8.93-9.26-8.93-2.83,0-4,.83-4.75,1.56-3,3-4.05,11.1-4.37,21.19v31a20.73,20.73,0,0,1,7.08-3.25c13.56-3.39,21.58,1.33,25.91,5.89a25.52,25.52,0,0,1,5,7.89,26.66,26.66,0,0,1,22.12-6.11,25.19,25.19,0,0,1,21.24,21.06c1.77,9.89-2.11,19.39-9.65,23.62a5.92,5.92,0,1,1-5.8-10.32c3.1-1.74,4.66-6.36,3.79-11.22-.41-2.32-2.46-10-11.45-11.45-13.54-2.16-18.81,11.87-19,12.47a5.92,5.92,0,0,1-11.22-3.76c1-3.17.24-10-3.6-14-3.15-3.31-8-4.17-14.46-2.56a8.76,8.76,0,0,0-5.75,4.36c-4.91,8.37-1.94,25.52-.43,31.25A58.22,58.22,0,0,0,986,462.46c5.51,7.63,16.48,13.26,27.93,14.35,10.44,1,19.86-1.9,26.52-8.16a5.92,5.92,0,0,1,6.11-1.24c.9.33,22.58,7.94,39.82-6.83,12.07-10.35,16.75-24.08,14.74-43.23-.8-7.52-5.21-15-12.13-20.56-6.64-5.32-14.5-7.92-21.52-7.11a5.93,5.93,0,0,1-6.53-6.78c.63-4.21,1-16.63-4.66-23.31-2.81-3.31-6.87-4.95-12.4-5-11.89-.16-17,5.57-17.29,19.17a5.92,5.92,0,0,1-11.84-.25c.56-27.1,18.63-30.93,29.3-30.76,9,.13,16.2,3.24,21.29,9.25,6.65,7.86,7.82,18.83,7.77,25.86a43.8,43.8,0,0,1,23.29,9.72,45.34,45.34,0,0,1,14.88,21c5.94-3.4,14.47-11.25,14.47-28.37C1125.8,362.06,1112.24,351.64,1102.62,350Z"/><path class="cls-6" d="M940.86,491.22a4.44,4.44,0,1,0,4.44,4.44A4.44,4.44,0,0,0,940.86,491.22Z"/><path class="cls-6" d="M978.84,491.22a4.44,4.44,0,1,0,4.44,4.44A4.44,4.44,0,0,0,978.84,491.22Z"/><path class="cls-5" d="M921.88,280.46a5.93,5.93,0,0,1-7.73-3.09,9.16,9.16,0,0,0-4.73-4.45c-2.43-.85-5.53-.32-9.22,1.56-5,2.56-7.93,10.28-6.65,17.56.74,4.22,3.46,11.49,13.33,12.74,7.57,1,15.6-2.13,22.58-8.68,11.1-10.41,17.1-26.78,16-43.79-.77-12.58-7.81-22.48-19.31-27.16C916,221,904.16,222,898,227.59a20,20,0,0,0-6.35,18.33,5.93,5.93,0,0,1-9.75,5.72c-.51-.45-13.29-11.55-28.48-3.36-6.54,3.52-12.71,14-13,25.94a50.51,50.51,0,0,1,7.6,1.21c15.72,3.78,25.81,14.37,27.67,29.05A5.92,5.92,0,1,1,864,306c-1.66-13-12.43-17.52-18.7-19-13.19-3.18-28.52,1-34.18,9.29-5.36,7.85-7.36,15.5-5.93,22.75,2.43,12.39,14,20.19,14.15,20.27A5.92,5.92,0,0,1,817.08,350c-9.63,1.6-23.17,12-23.18,30.17,0,17.12,8.54,25,14.48,28.38a45.15,45.15,0,0,1,14.88-21,43.74,43.74,0,0,1,23.28-9.72c0-7,1.12-18,7.77-25.87,5.09-6,12.25-9.12,21.3-9.24,10.66-.18,28.73,3.65,29.29,30.76a5.92,5.92,0,1,1-11.83.24c-.28-13.6-5.51-19.33-17.3-19.16-5.53.07-9.59,1.72-12.4,5-5.68,6.68-5.29,19.1-4.66,23.32a5.93,5.93,0,0,1-6.53,6.76c-7-.8-14.87,1.79-21.52,7.12-6.91,5.54-11.33,13-12.12,20.55-2,19.15,2.67,32.89,14.73,43.23,17.39,14.9,39.6,6.92,39.82,6.84a5.92,5.92,0,0,1,6.11,1.24c6.66,6.26,16.08,9.15,26.52,8.16,11.45-1.1,22.42-6.73,27.94-14.35a58.35,58.35,0,0,0,8.06-16.22c1.6-6.11,4.48-22.89-.44-31.27a8.78,8.78,0,0,0-5.74-4.35c-6.45-1.61-11.31-.75-14.47,2.57-3.83,4-4.56,10.85-3.59,14A5.92,5.92,0,0,1,906.25,431c-.21-.57-5.67-14.6-19-12.46-9,1.43-11,9.12-11.46,11.44-.86,4.87.7,9.48,3.8,11.23a5.92,5.92,0,0,1-5.8,10.32c-7.54-4.24-11.42-13.73-9.65-23.63a25.22,25.22,0,0,1,21.24-21.06,26.7,26.7,0,0,1,22.12,6.12,25.11,25.11,0,0,1,5-7.89c4.33-4.56,12.35-9.29,25.91-5.9a20.94,20.94,0,0,1,7.08,3.26v-31c-.33-10.09-1.35-18.16-4.37-21.2-.73-.72-1.92-1.55-4.75-1.55-8.81,0-9.26,7.39-9.26,8.88a5.92,5.92,0,0,1-5.92,5.92h0a5.93,5.93,0,0,1-5.92-5.92c0-8.33,5.62-20.73,21.1-20.73a19.32,19.32,0,0,1,9.12,2.09V295.49a58.5,58.5,0,0,1-7.93,9.24c-8.38,7.87-18.15,12.06-27.91,12.06a33.57,33.57,0,0,1-4.25-.27,26.57,26.57,0,0,1-23.51-22.44c-2.2-12.51,3.24-25.19,12.92-30.14,6.78-3.47,13.09-4.18,18.76-2.11A20.9,20.9,0,0,1,925,272.71,5.91,5.91,0,0,1,921.88,280.46Z"/></g><g class="cls-7"><path class="cls-8" d="M516.25,547.29a1.11,1.11,0,0,0,.3,0,15.8,15.8,0,0,0,10.43-10,1,1,0,0,0-.65-1.32,1,1,0,0,0-1.33.65,13.73,13.73,0,0,1-9,8.7,1,1,0,0,0-.71,1.3A1,1,0,0,0,516.25,547.29Z"/><path class="cls-8" d="M512,389.72a49,49,0,0,0-48.88,48.89c0,12.66,7.51,25.51,12,32,1.12,1.62,2.26,3.25,3.38,4.84,4.67,6.6,9.08,12.84,9.32,16.61v8.29a9.77,9.77,0,0,0-5,4,5.63,5.63,0,0,0-.55,4.64,7.5,7.5,0,0,0,5.19,4.52,9.62,9.62,0,0,0-4.64,3.86,5.63,5.63,0,0,0-.55,4.64,7.55,7.55,0,0,0,5.24,4.53,9.54,9.54,0,0,0-4.69,3.88,5.61,5.61,0,0,0-.55,4.63c1,3.06,4.58,5.1,8.93,5.1a14.23,14.23,0,0,0,1.95-.15,20.48,20.48,0,0,0,39.36-7.95c0-.21,0-.42,0-.62l1.77-.39a10.56,10.56,0,0,0,7-4.61,5.63,5.63,0,0,0,.55-4.64,7.59,7.59,0,0,0-5.23-4.54,9.59,9.59,0,0,0,4.68-3.87,5.62,5.62,0,0,0,.55-4.64,7.58,7.58,0,0,0-5.19-4.52,9.55,9.55,0,0,0,4.64-3.85,5.63,5.63,0,0,0,.55-4.64c-.71-2.16-2.73-3.81-5.4-4.59.82-3.88,4.85-9.62,9.15-15.7,1.12-1.59,2.26-3.21,3.38-4.84,4.48-6.53,12-19.38,12-32A48.94,48.94,0,0,0,512,389.72Zm18.39,142.37a18.38,18.38,0,0,1-35.14,7.54l35.12-7.7A1,1,0,0,1,530.41,532.09Zm9.37-9.6a3.59,3.59,0,0,1-.38,3,8.47,8.47,0,0,1-5.61,3.6l-1.49.32-2,.46-35.75,7.84-.79.17q-.65.13-1.29.21c-.41,0-.82.07-1.23.07-3.38,0-6.23-1.5-6.94-3.65a3.66,3.66,0,0,1,.37-3,8.46,8.46,0,0,1,5.62-3.59l1.82-.4,2.3-.51,31.55-6.91,2.3-.51,2.11-.46a11.47,11.47,0,0,1,2.53-.28C536.23,518.85,539.08,520.35,539.78,522.49Zm0-13.05a3.63,3.63,0,0,1-.38,2.95,8.51,8.51,0,0,1-5.61,3.6l-7.33,1.6-2.51.55-28.61,6.28-1.63.36c-.28.06-.56.09-.85.14a13.4,13.4,0,0,1-1.67.12c-3.38,0-6.22-1.49-6.93-3.65a3.55,3.55,0,0,1,.37-2.93,8.46,8.46,0,0,1,5.61-3.6l4.47-1,9.57-2.09,26.05-5.71a11.94,11.94,0,0,1,2.52-.28,10.53,10.53,0,0,1,1.26.07,9.81,9.81,0,0,1,2.09.48A5.42,5.42,0,0,1,539.78,509.44Zm0-13a3.61,3.61,0,0,1-.38,2.94,7.26,7.26,0,0,1-3.19,2.74,10.27,10.27,0,0,1-2.1.76c-.11,0-.2.08-.31.1l-40.09,8.79-.15,0a11.86,11.86,0,0,1-2.37.26,10.19,10.19,0,0,1-3.35-.55,5.4,5.4,0,0,1-3.58-3.09,3.66,3.66,0,0,1,.37-3,7.27,7.27,0,0,1,3.2-2.73,11.36,11.36,0,0,1,2.1-.77c.11,0,.2-.07.31-.09l40.09-8.79a11.32,11.32,0,0,1,2.52-.28,10.52,10.52,0,0,1,1.26.08,9.24,9.24,0,0,1,2.09.47A5.39,5.39,0,0,1,539.78,496.43Zm7.4-27c-1.11,1.62-2.25,3.23-3.37,4.81-4.58,6.47-8.55,12.14-9.48,16.5a14.21,14.21,0,0,0-1.48-.08,13.57,13.57,0,0,0-3,.32l-39.95,8.76V492c-.28-4.44-4.65-10.61-9.7-17.76-1.12-1.58-2.26-3.19-3.37-4.81-4.34-6.33-11.63-18.76-11.63-30.85a46.79,46.79,0,1,1,93.57,0C558.8,450.7,551.52,463.13,547.18,469.46Z"/><path class="cls-8" d="M509.69,397.4a39.26,39.26,0,0,0-39.22,39.21,1.06,1.06,0,0,0,2.11,0,37.16,37.16,0,0,1,37.11-37.11,1.05,1.05,0,0,0,0-2.1Z"/><path class="cls-8" d="M497.88,502.41l-7.95,1.75-.14,0a1.06,1.06,0,0,0-.8,1.25,1,1,0,0,0,.94.81l.09,0a.83.83,0,0,0,.22,0l8.09-1.77a1.05,1.05,0,0,0-.45-2.06Z"/><path class="cls-8" d="M497.88,515.11l-8.09,1.77A1.05,1.05,0,0,0,490,519l.22,0,7.72-1.69.38-.08a1,1,0,0,0,.8-1,1.31,1.31,0,0,0,0-.28A1.06,1.06,0,0,0,497.88,515.11Z"/><path class="cls-8" d="M497.88,528.15l-4,.87-2.19.48-1.93.42a1.06,1.06,0,0,0-.8,1.25,1,1,0,0,0,1,.83.82.82,0,0,0,.22,0l1.31-.29,2.13-.46,4.65-1a1,1,0,0,0,.8-1.25A1.05,1.05,0,0,0,497.88,528.15Z"/><path class="cls-8" d="M512,410.35a1,1,0,0,0-1,1v16.86a1,1,0,0,0,2.1,0V411.4A1,1,0,0,0,512,410.35Z"/><path class="cls-8" d="M499,414.55a1,1,0,1,0-1.81,1.05l8.43,14.6a1.05,1.05,0,0,0,1.82-1.05Z"/><path class="cls-8" d="M501.9,434.58a1.05,1.05,0,0,0,1.05-1.83l-14.6-8.43a1.05,1.05,0,0,0-1.06,1.82Z"/><path class="cls-8" d="M501.94,439.16a1,1,0,0,0-1.05-1.05H484a1,1,0,0,0,0,2.1h16.86A1,1,0,0,0,501.94,439.16Z"/><path class="cls-8" d="M503.22,444.15a1.06,1.06,0,0,0-1.44-.38l-14.6,8.43a1.05,1.05,0,0,0,.53,2,1,1,0,0,0,.52-.14l14.6-8.43A1,1,0,0,0,503.22,444.15Z"/><path class="cls-8" d="M506.82,447.84a1,1,0,0,0-1.43.39L497,462.82a1,1,0,0,0,.39,1.44.9.9,0,0,0,.52.15,1.06,1.06,0,0,0,.91-.53l8.43-14.6A1,1,0,0,0,506.82,447.84Z"/><path class="cls-8" d="M511.79,449.24a1,1,0,0,0-1.05,1v16.86a1.05,1.05,0,0,0,2.1,0V450.28A1,1,0,0,0,511.79,449.24Z"/><path class="cls-8" d="M518.22,448.34a1,1,0,0,0-1.43-.39,1.06,1.06,0,0,0-.39,1.44L524.83,464a1.07,1.07,0,0,0,.92.52,1.13,1.13,0,0,0,.52-.14,1,1,0,0,0,.38-1.43Z"/><path class="cls-8" d="M536.51,452.4,521.91,444a1,1,0,0,0-1.43.38,1.06,1.06,0,0,0,.38,1.44l14.6,8.43a1.13,1.13,0,0,0,.53.14,1,1,0,0,0,.91-.53A1,1,0,0,0,536.51,452.4Z"/><path class="cls-8" d="M539.78,438.34H522.91a1,1,0,1,0,0,2.09h16.87a1,1,0,1,0,0-2.09Z"/></g><g class="cls-9"><path class="cls-8" d="M1292.27,794.91a18.15,18.15,0,0,0-14.44,7.4h-5.24l-.21-37.4a2.83,2.83,0,0,0-2.83-2.79h-40.09v-4.58a18.06,18.06,0,0,0,6.36-13.59,18.45,18.45,0,0,0-36.9,0,18,18,0,0,0,6.79,14v4.21h-34.15a2.81,2.81,0,0,0-2.81,2.81v96.28a2.81,2.81,0,0,0,2.81,2.81h99.25a2.81,2.81,0,0,0,2.82-2.81V824.82h4.51a18.09,18.09,0,0,0,14.13,7,18.46,18.46,0,0,0,0-36.91Zm0,31.27c-2.79,0-7-2.81-9.8-5.12-.45-.39-1-.78-1.31-1.12a2.82,2.82,0,0,0-2-.76h-8.41A2.84,2.84,0,0,0,1268,822v36.37h-93.6V767.75h34.16a2.84,2.84,0,0,0,2.82-2.82v-8.41a2.79,2.79,0,0,0-1.21-2.29,12.66,12.66,0,0,1-5.61-10.28,12.82,12.82,0,1,1,25.64,0,12.5,12.5,0,0,1-5.24,10,2.82,2.82,0,0,0-1.13,2.23v8.73a2.85,2.85,0,0,0,2.84,2.82h40.12l.22,37.38a2.83,2.83,0,0,0,2.81,2.81h8.66a2.81,2.81,0,0,0,3.16-1.21,12.47,12.47,0,0,1,10.65-6.18,12.82,12.82,0,0,1,0,25.63Z"/><path class="cls-8" d="M1252.56,779.05h-64a2.81,2.81,0,0,0-2.8,2.8v62.43a2.82,2.82,0,0,0,2.8,2.81h64a2.81,2.81,0,0,0,2.83-2.81V781.85A2.81,2.81,0,0,0,1252.56,779.05Zm-2.81,62.41h-58.32V784.68h58.32Z"/></g><g class="cls-10"><path class="cls-8" d="M413.59,768.75c-12.07-42-48-111.68-153.56-106.25-93.67,4.89-162.41,67.91-163.48,149.85-.68,52.64-19.7,71.18-31,82.27-6.24,6.11-11.21,10.93-7.61,18,4.18,8.17,15.56,9.33,25.63,10.38,9,.94,15,1.79,14.74,5-.38,5-4.86,10.08-8.46,14.16s-6.53,7.41-5.68,10.89c.43,1.84,1.77,3.21,4,4.12a64.14,64.14,0,0,0,13.22,3.15c-6.77,2.64-13.41,6.33-14.6,10.79-.36,1.38-.54,4.07,2.24,6.74a46.65,46.65,0,0,0,8.09,6c4.1,2.49,4.54,2.73,2.82,8.27-2.49,8.09-5.17,20,.26,28.89,3.38,5.6,9.42,9.24,18,10.83,4.26.77,10.11,1.42,16.89,2.14,31.38,3.33,83.89,8.94,83.83,41.74a3,3,0,0,0,2.91,3,2.85,2.85,0,0,0,2.94-3c.11-38.09-55.72-44-89.06-47.58-6.68-.71-12.41-1.32-16.47-2.09-6.8-1.25-11.49-4-14-8.07-4.19-6.92-1.8-17.1.36-24.15,2.83-9.19-.15-11.81-5.37-15A36.09,36.09,0,0,1,93,973.58c-.25-.25-.66-.7-.61-.94.85-3.15,13.41-8.29,24.2-10.93a2.95,2.95,0,0,0-.58-5.81c-.14,0-17.41-.87-25.72-4.2a2,2,0,0,1-.3-.13c.48-1.23,2.75-3.76,4.26-5.5,4.16-4.75,9.36-10.63,9.91-17.64.66-9.11-9.85-10.21-20-11.26-8.56-.89-18.27-1.91-21-7.24-1.42-2.85,0-4.76,6.47-11.08,11.22-11,32.08-31.34,32.79-86.42,1-78.71,67.43-139.32,157.93-144.07,2.06-.09,4.07-.18,6.05-.24,96.7-2.37,130.18,62.71,141.57,102.29,14.61,50.88-15.48,139.3-31.63,186.81-1.79,5.23-3.4,10-4.81,14.25-26.11,79-5.89,101.68-5,102.62a3,3,0,0,0,2.22.94,2.84,2.84,0,0,0,1.92-.8,2.91,2.91,0,0,0,.15-4.16c-.2-.19-18.7-21.06,6.32-96.74,1.38-4.23,3-9,4.78-14.21C398.23,911,428.74,821.4,413.59,768.75Z"/><path class="cls-8" d="M322.75,826.67l35.62-.86a2.92,2.92,0,0,0,2.87-3l-2.47-100.39a2.92,2.92,0,0,0-3-2.85l-103.5,2.54a2.93,2.93,0,0,0-2.87,3l.94,38-4.71.13a18.87,18.87,0,0,0-14.94-7,19.26,19.26,0,0,0,1,38.5,18.85,18.85,0,0,0,14.86-8.11l5.48-.12,1.19,39a2.94,2.94,0,0,0,3,2.83l41.8-1,.15,4.77a18.88,18.88,0,0,0-6.29,14.31,19.26,19.26,0,1,0,38.5-.9,18.75,18.75,0,0,0-7.45-14.42ZM311.4,859.31a13.35,13.35,0,0,1-13.68-13,13.05,13.05,0,0,1,5.21-10.57,3,3,0,0,0,1.09-2.37l-.22-9.09a2.93,2.93,0,0,0-3-2.86L259,822.44l-1.22-39a2.9,2.9,0,0,0-3-2.81l-9,.22h0a3,3,0,0,0-3.3,1.35,13,13,0,0,1-10.91,6.7,13.38,13.38,0,1,1-.68-26.75,13,13,0,0,1,11.25,6.2,2.83,2.83,0,0,0,3.33.94,2.26,2.26,0,0,1,.38-.17l7.6-.21a2.9,2.9,0,0,0,2.84-3l-.92-38L353,725.51l2.3,94.54-35.6.89a2.86,2.86,0,0,0-2.81,3l.22,8.75a2.8,2.8,0,0,0,1.28,2.38,13.12,13.12,0,0,1,6.13,10.57A13.4,13.4,0,0,1,311.4,859.31Z"/><path class="cls-8" d="M341.34,806l-1.61-65.12a2.91,2.91,0,0,0-3-2.85l-66.69,1.66a3,3,0,0,0-2.9,3l1.63,65.13a2.92,2.92,0,0,0,3.05,2.84L338.47,809A2.94,2.94,0,0,0,341.34,806Zm-68.21-60.51,60.8-1.5,1.47,59.23-60.82,1.51Z"/><path class="cls-8" d="M277.41,889.18a19,19,0,0,0-14.86,8.1l-5.46.13-1.18-39a3,3,0,0,0-3-2.84l-41.81,1-.11-4.77a19,19,0,0,0,6.29-14.34,19.26,19.26,0,0,0-38.5.93,18.69,18.69,0,0,0,7.47,14.38l.12,4.39-35.63.88a2.93,2.93,0,0,0-2.87,3l2.47,100.44a2.91,2.91,0,0,0,3,2.84l103.49-2.54a2.93,2.93,0,0,0,2.86-3l-.89-38,4.67-.1a19,19,0,0,0,14.94,6.91,19.24,19.24,0,0,0-1-38.47Zm.82,32.63c-2.92.06-7.35-2.77-10.35-5.11-.48-.39-1-.79-1.41-1.13a2.73,2.73,0,0,0-2-.73l-1.19,0-7.57.18a3,3,0,0,0-2.89,3l.95,37.93-97.64,2.41-2.32-94.53,35.63-.85a3,3,0,0,0,2.86-3l-.22-8.78a2.93,2.93,0,0,0-1.3-2.35,13.25,13.25,0,0,1-6.13-10.56,13.38,13.38,0,1,1,26.76-.67,13,13,0,0,1-5.23,10.57,2.83,2.83,0,0,0-1.1,2.37l.21,9.09a2.94,2.94,0,0,0,3.06,2.86l41.82-1,1.2,39a2.94,2.94,0,0,0,3,2.85l9-.21a3,3,0,0,0,3.25-1.37A13.1,13.1,0,0,1,277.58,895a13.39,13.39,0,1,1,.65,26.78Z"/><path class="cls-8" d="M235.59,873.68l-66.68,1.63a2.93,2.93,0,0,0-2.87,3l1.63,65.12a2.88,2.88,0,0,0,3,2.8l66.71-1.62a3,3,0,0,0,2.86-3l-1.61-65.1A2.9,2.9,0,0,0,235.59,873.68Zm-1.31,65.16-60.83,1.5L172,881.09l60.81-1.47Z"/></g><g class="cls-10"><path class="cls-8" d="M1439.57,180.88l1,2.9c5.1,15.44,1.32,19.7,1.28,19.73a.61.61,0,0,0,.43,1,.63.63,0,0,0,.45-.19c.17-.2,4.3-4.83-1-20.94-.29-.86-.61-1.84-1-2.9-3.29-9.7-9.43-27.73-6.45-38.11,2.32-8.08,9.15-21.35,28.88-20.87l1.23,0c18.46,1,32,13.33,32.22,29.39.14,11.24,4.4,15.39,6.69,17.63,1.32,1.29,1.61,1.68,1.32,2.26-.56,1.09-2.54,1.29-4.28,1.48-2.08.21-4.22.43-4.09,2.29a6.82,6.82,0,0,0,2,3.6,6.24,6.24,0,0,1,.87,1.12l-.06,0a22.09,22.09,0,0,1-5.25.86.62.62,0,0,0-.57.54.63.63,0,0,0,.46.64c2.2.54,4.76,1.59,4.93,2.23,0,.05-.07.14-.12.19a7.35,7.35,0,0,1-1.45,1.08c-1.07.65-1.68,1.18-1.1,3.06.44,1.43.93,3.51.07,4.92a4,4,0,0,1-2.85,1.65c-.83.16-2,.28-3.36.42-6.8.73-18.19,1.94-18.17,9.71a.58.58,0,0,0,.6.6.59.59,0,0,0,.59-.6c0-6.69,10.7-7.83,17.1-8.51,1.39-.15,2.58-.28,3.45-.44a5.12,5.12,0,0,0,3.67-2.21c1.1-1.82.56-4.24,0-5.89-.35-1.13-.26-1.18.57-1.69a9.45,9.45,0,0,0,1.65-1.23,1.36,1.36,0,0,0,.46-1.37c-.24-.91-1.6-1.67-3-2.2a12.88,12.88,0,0,0,2.7-.65,1.21,1.21,0,0,0,.81-.84c.17-.71-.42-1.37-1.16-2.22a5.75,5.75,0,0,1-1.72-2.89c0-.65,1.15-.83,3-1,2.06-.21,4.38-.45,5.23-2.11.73-1.44-.28-2.43-1.55-3.67-2.31-2.27-6.19-6-6.33-16.79-.22-16.71-14.24-29.57-33.35-30.56-21.53-1.11-28.86,13.09-31.33,21.67C1430,152.79,1436.24,171.06,1439.57,180.88Z"/><path class="cls-8" d="M1451.61,154.76a3.85,3.85,0,0,0-1.52,3,3.93,3.93,0,1,0,7.85.18,3.85,3.85,0,0,0-1.28-2.92l0-1,8.53.2a.59.59,0,0,0,.61-.57l.25-8,1.11,0a3.87,3.87,0,0,0,3,1.65,3.93,3.93,0,0,0,.2-7.85,3.84,3.84,0,0,0-3.05,1.42l-1,0,.19-7.74a.59.59,0,0,0-.58-.61L1444.9,132a.59.59,0,0,0-.61.58l-.51,20.48a.61.61,0,0,0,.59.61l7.26.18Zm-.33,3a2.69,2.69,0,0,1,1.26-2.15.62.62,0,0,0,.26-.49l0-1.78a.57.57,0,0,0-.57-.61l-7.27-.19.47-19.28,19.92.49-.19,7.74a.59.59,0,0,0,.58.61l1.55.05s.05,0,.08,0a.57.57,0,0,0,.68-.19,2.64,2.64,0,0,1,2.3-1.26,2.73,2.73,0,1,1-.14,5.45,2.66,2.66,0,0,1-2.23-1.36.59.59,0,0,0-.67-.28h0l-1.84,0a.59.59,0,0,0-.61.57l-.25,8-8.54-.21a.59.59,0,0,0-.61.58l0,1.86a.61.61,0,0,0,.22.48,2.66,2.66,0,0,1,1.06,2.16,2.73,2.73,0,0,1-5.46-.14Z"/><path class="cls-8" d="M1448.43,150.26l13.59.33a.59.59,0,0,0,.62-.58l.34-13.28a.62.62,0,0,0-.59-.62l-13.61-.33a.59.59,0,0,0-.61.58l-.33,13.28A.6.6,0,0,0,1448.43,150.26Zm13-.88-12.41-.3.31-12.09,12.4.31Z"/><path class="cls-8" d="M1456.86,170.45a3.91,3.91,0,0,0,3.82,4,3.85,3.85,0,0,0,3-1.41l1,0-.18,7.75a.6.6,0,0,0,.59.61l21.11.52a.6.6,0,0,0,.62-.58l.5-20.49a.6.6,0,0,0-.59-.61l-7.26-.17,0-.9a3.8,3.8,0,0,0,1.52-2.93,3.93,3.93,0,1,0-7.85-.19,3.89,3.89,0,0,0,1.28,2.92l0,1-8.53-.21a.6.6,0,0,0-.62.58l-.24,7.95-1.11,0a3.88,3.88,0,0,0-3-1.65A3.92,3.92,0,0,0,1456.86,170.45Zm1.19,0a2.73,2.73,0,0,1,2.8-2.65,2.66,2.66,0,0,1,2.23,1.37.6.6,0,0,0,.66.28l1.84,0a.6.6,0,0,0,.62-.58l.25-7.95,8.53.21a.6.6,0,0,0,.62-.59l0-1.85a.55.55,0,0,0-.22-.48,2.66,2.66,0,0,1-1.07-2.16,2.73,2.73,0,0,1,5.46.13,2.7,2.7,0,0,1-1.25,2.16.61.61,0,0,0-.27.48l0,1.79a.61.61,0,0,0,.58.62l7.27.17-.47,19.29-19.92-.5.19-7.73a.6.6,0,0,0-.58-.62l-1.55,0h-.24a.54.54,0,0,0-.41.15l-.29.23a4.34,4.34,0,0,1-2.11,1A2.75,2.75,0,0,1,1458.05,170.46Z"/><path class="cls-8" d="M1468.8,164l-.33,13.28a.61.61,0,0,0,.58.62l13.61.33a.6.6,0,0,0,.61-.58l.33-13.28a.59.59,0,0,0-.58-.61l-13.61-.34A.59.59,0,0,0,1468.8,164Zm1.18.64,12.41.3-.3,12.08-12.41-.3Z"/></g><g class="cls-11"><path class="cls-8" d="M1771.93,957.29c3.09-5.53,1.65-9-.52-10.29a5.94,5.94,0,0,0-3-.76c-1.83,0-5.4.74-8.62,5.79-3.59,5.59-16.44,26.42-16.57,26.61a15.51,15.51,0,0,1-25.21,0c-.13-.2-13-21-16.57-26.62-3.22-5-6.79-5.79-8.63-5.79a5.91,5.91,0,0,0-3,.76c-2.18,1.29-3.62,4.76-.54,10.29,3.42,6.08,17.8,32.74,20.65,42.43,2.36,8-1.68,39.23-3.39,52.56-.44,3.36-.77,5.87-.87,7.08s-.31,2.39-.52,3.73c-.77,4.78-1.64,10.2,1,13.33a7.21,7.21,0,0,0,5.76,2.26c6.48,0,8.18-9.26,9.26-17.92,1.81-14.55,6.37-28.28,9.4-28.28s7.57,13.74,9.38,28.28c1.08,8.66,2.77,17.92,9.27,17.92a7.18,7.18,0,0,0,5.75-2.26c2.67-3.13,1.8-8.55,1-13.33-.21-1.33-.42-2.6-.52-3.73s-.43-3.71-.87-7.07c-1.72-13.34-5.77-44.56-3.4-52.57C1754.14,990,1768.53,963.37,1771.93,957.29Zm-19.11,117.24a4.36,4.36,0,0,1-3.53,1.24c-3.12,0-5-4.6-6.38-15.38-.15-1.26-3.93-30.83-12.27-30.83s-12.13,29.57-12.29,30.83c-1.34,10.78-3.25,15.38-6.37,15.38a4.35,4.35,0,0,1-3.53-1.24c-1.8-2.11-1-7-.39-11,.24-1.41.44-2.75.56-3.94s.43-3.66.85-7c2-15.77,5.84-45.16,3.3-53.76-2.93-9.95-17.46-36.89-20.88-43-1.93-3.44-1.63-5.7-.54-6.36a3,3,0,0,1,1.49-.35c1.24,0,3.7.57,6.17,4.45,3.57,5.56,16.41,26.37,16.54,26.59a18.43,18.43,0,0,0,30.17,0c.13-.21,13-21,16.53-26.58,2.47-3.88,4.93-4.45,6.17-4.45a2.89,2.89,0,0,1,1.48.35c1.11.66,1.41,2.92-.53,6.36-3.43,6.14-18,33.08-20.88,43-2.54,8.6,1.27,38,3.3,53.76.43,3.31.74,5.79.86,7s.33,2.53.54,3.94C1753.84,1067.49,1754.62,1072.41,1752.82,1074.53Z"/><path class="cls-8" d="M1730.64,980.09a12.37,12.37,0,1,0-12.37-12.36A12.37,12.37,0,0,0,1730.64,980.09Zm0-21.82a9.45,9.45,0,1,1-9.45,9.46A9.47,9.47,0,0,1,1730.64,958.27Z"/></g><g class="cls-11"><path class="cls-8" d="M1646.4,988.11c2.24-4,1.2-6.54-.38-7.47a4.27,4.27,0,0,0-2.17-.55c-1.32,0-3.92.53-6.26,4.2-2.6,4.06-11.93,19.19-12,19.33a11.29,11.29,0,0,1-9.16,4.7,11.18,11.18,0,0,1-9.16-4.7c-.09-.14-9.43-15.27-12-19.33-2.34-3.67-4.93-4.2-6.27-4.2a4.25,4.25,0,0,0-2.16.55c-1.58.94-2.62,3.45-.39,7.47,2.48,4.41,12.93,23.77,15,30.81,1.72,5.82-1.22,28.5-2.46,38.18-.32,2.44-.56,4.26-.64,5.14s-.22,1.74-.37,2.71c-.56,3.47-1.19,7.41.74,9.68a5.24,5.24,0,0,0,4.18,1.64c4.71,0,6-6.72,6.73-13,1.31-10.57,4.63-20.54,6.82-20.54s5.5,10,6.82,20.54c.78,6.29,2,13,6.73,13a5.23,5.23,0,0,0,4.18-1.64c1.93-2.27,1.3-6.21.75-9.68-.15-1-.3-1.89-.38-2.71s-.31-2.7-.63-5.14c-1.25-9.68-4.19-32.35-2.47-38.17C1633.48,1011.88,1643.93,992.52,1646.4,988.11Zm-13.88,85.15a3.16,3.16,0,0,1-2.56.9c-2.27,0-3.66-3.34-4.64-11.18-.11-.91-2.85-22.38-8.91-22.38s-8.81,21.47-8.92,22.38c-1,7.84-2.36,11.18-4.63,11.18a3.15,3.15,0,0,1-2.56-.9c-1.31-1.54-.74-5.11-.29-8,.18-1,.32-2,.41-2.86s.31-2.66.62-5.06c1.48-11.46,4.24-32.8,2.39-39-2.12-7.22-12.68-26.79-15.16-31.25-1.41-2.5-1.18-4.14-.4-4.62a2.17,2.17,0,0,1,1.09-.25c.9,0,2.69.41,4.48,3.23,2.59,4,11.92,19.15,12,19.31a13.38,13.38,0,0,0,21.91,0c.1-.15,9.43-15.26,12-19.3,1.8-2.82,3.58-3.23,4.48-3.23a2.08,2.08,0,0,1,1.08.25c.8.48,1,2.12-.39,4.62-2.49,4.46-13,24-15.16,31.25-1.84,6.25.92,27.59,2.39,39,.31,2.4.54,4.2.63,5.06s.24,1.84.39,2.86C1633.26,1068.15,1633.83,1071.72,1632.52,1073.26Z"/><path class="cls-8" d="M1616.41,1004.67a9,9,0,1,0-9-9A9,9,0,0,0,1616.41,1004.67Zm0-15.85a6.87,6.87,0,1,1-6.86,6.87A6.88,6.88,0,0,1,1616.41,988.82Z"/></g><path class="cls-12" d="M1933,341.71c-.15-.12-.27-.23-.41-.36a96.45,96.45,0,0,0-132.6,0c-.13.13-.25.22-.39.34a96.6,96.6,0,0,0-.45,140.05l.73.65a96.44,96.44,0,0,0,66.4,26.52,2.42,2.42,0,0,1-2.4-2.41v-.12a93.91,93.91,0,0,1-25.75-4.15,2.31,2.31,0,0,1-1.38,1.32,2.62,2.62,0,0,1-.79.14,2.41,2.41,0,0,1-2.26-1.6s-.21-.69-.54-1.65c-.24-.74-.52-1.69-.91-2.92a91.64,91.64,0,0,1-28.15-17.72,199.85,199.85,0,0,0,24.65,5c1.38,5.41,2.62,9.77,3.52,12.72,1.86.75,3.75,1.48,5.67,2.1-.61-1.87-2.17-6.83-4.06-14.12a263.5,263.5,0,0,0,30,2V504c.81,0,1.59.12,2.4.12s1.59-.1,2.39-.12V487.46a271.31,271.31,0,0,0,30-2c-1.9,7.29-3.46,12.25-4.07,14.12,1.91-.62,3.8-1.34,5.66-2.1.89-2.95,2.15-7.31,3.5-12.72a207.39,207.39,0,0,0,24.67-5,91.73,91.73,0,0,1-28.17,17.72c-.37,1.23-.68,2.17-.9,2.92-.33,1-.53,1.62-.56,1.65a2.41,2.41,0,0,1-2.26,1.6,2.67,2.67,0,0,1-.78-.14,2.32,2.32,0,0,1-1.37-1.32,93.42,93.42,0,0,1-25.76,4.15v.12a2.41,2.41,0,0,1-2.39,2.41,96.48,96.48,0,0,0,66.41-26.52c.24-.22.49-.43.71-.65a96.61,96.61,0,0,0-.4-140Zm3.82,129.44a254.25,254.25,0,0,0,5.72-27.43c4.94-1.21,8.74-2.25,11.27-3A92.08,92.08,0,0,1,1936.81,471.15Zm-158-30.44c2.53.75,6.32,1.8,11.27,3a252.87,252.87,0,0,0,5.72,27.43A91.55,91.55,0,0,1,1778.76,440.71Zm85.12-120.87v16.55a261.07,261.07,0,0,0-30,2c1.89-7.3,3.45-12.26,4.06-14.11A91.93,91.93,0,0,1,1863.88,319.84Zm76.36,89.68h-26.85a275.41,275.41,0,0,0-2.05-30.29c10.77,1.42,19.83,3.18,27,4.81A210,210,0,0,1,1940.24,409.52Zm-147.93,0a209.9,209.9,0,0,1,2-25.48c7.12-1.63,16.18-3.39,26.94-4.81a275.34,275.34,0,0,0-2.06,30.29Zm9.19-59.73a190.16,190.16,0,0,1,26-5.71c-2,8.38-4,18.75-5.66,30.25-10.55,1.38-19.61,3.05-26.85,4.64A255.44,255.44,0,0,1,1801.5,349.79Zm129.54,0a244.94,244.94,0,0,1,6.49,29.18c-7.25-1.59-16.29-3.26-26.86-4.64-1.6-11.5-3.67-21.87-5.65-30.25A186.75,186.75,0,0,1,1931,349.79Zm-25.26,24a346.87,346.87,0,0,0-37.11-2.21V341.18a261.82,261.82,0,0,1,31.28,2.16C1901.94,351.63,1904.1,362,1905.78,373.76Zm-41.9-2.22a352.14,352.14,0,0,0-37.1,2.2c1.67-11.71,3.82-22.12,5.84-30.4a255.52,255.52,0,0,1,31.27-2.16v30.36Zm-37.78,7.1a348.89,348.89,0,0,1,37.78-2.33v33.2H1824A275.16,275.16,0,0,1,1826.1,378.64Zm42.57-2.33a347.2,347.2,0,0,1,37.79,2.34,272.3,272.3,0,0,1,2.15,30.86h-39.94Zm68.14-23.66a92.13,92.13,0,0,1,17,30.45c-2.55-.75-6.33-1.81-11.27-3A253.39,253.39,0,0,0,1936.81,352.65Zm-8.37-8.6a197,197,0,0,0-24.66-5c-1.35-5.41-2.6-9.76-3.5-12.72A91.69,91.69,0,0,1,1928.44,344.05Zm-29.75-5.7a261.75,261.75,0,0,0-30-2V319.84a91.53,91.53,0,0,1,26,4.4C1895.24,326.09,1896.8,331.05,1898.69,338.35Zm-69.94.68a209,209,0,0,0-24.62,5,91.84,91.84,0,0,1,28.14-17.69C1831.38,329.28,1830.13,333.61,1828.75,339Zm-33,13.65A253.64,253.64,0,0,0,1790,380.1c-4.93,1.2-8.73,2.26-11.26,3A91.8,91.8,0,0,1,1795.74,352.68Zm-18.55,35.93c1.4-.45,5.6-1.78,12.11-3.4a210,210,0,0,0-1.77,24.3h-13.32A91.18,91.18,0,0,1,1777.19,388.61Zm10.34,25.68a208.36,208.36,0,0,0,1.77,24.33c-6.52-1.63-10.72-2.95-12.11-3.42a91.74,91.74,0,0,1-3-20.92h13.32Zm4.78,0h26.85a275.71,275.71,0,0,0,2.06,30.31c-10.77-1.44-19.82-3.18-26.94-4.79A211.06,211.06,0,0,1,1792.31,414.29Zm31.64,0h39.93V447.5a337.22,337.22,0,0,1-37.78-2.33A274.67,274.67,0,0,1,1824,414.29Zm44.72,0h39.94a272.52,272.52,0,0,1-2.15,30.89,340.13,340.13,0,0,1-37.79,2.32Zm44.7,0h26.86a206.92,206.92,0,0,1-2,25.52c-7.12,1.62-16.18,3.35-26.94,4.79A271.1,271.1,0,0,0,1913.37,414.29Zm42,20.91c-1.4.47-5.62,1.8-12.11,3.42a210.52,210.52,0,0,0,1.75-24.33h13.32A90.63,90.63,0,0,1,1955.38,435.2ZM1945,409.52a212.4,212.4,0,0,0-1.75-24.3c6.49,1.62,10.71,2.95,12.11,3.4a90.71,90.71,0,0,1,3,20.91H1945ZM1801.5,474a247.66,247.66,0,0,1-6.48-29.19c7.24,1.61,16.29,3.27,26.85,4.62,1.61,11.54,3.68,21.89,5.66,30.29A191.59,191.59,0,0,1,1801.5,474Zm31.11,6.44c-2-8.29-4.16-18.72-5.84-30.41a339.34,339.34,0,0,0,37.1,2.2v30.37A257.65,257.65,0,0,1,1832.61,480.48Zm36.06,2.16V452.27a349.33,349.33,0,0,0,37.11-2.21c-1.67,11.69-3.83,22.12-5.83,30.41A255.68,255.68,0,0,1,1868.67,482.64Zm36.35-2.89c2-8.39,4.06-18.75,5.65-30.29,10.57-1.35,19.62-3,26.86-4.62A243.2,243.2,0,0,1,1931,474,187.8,187.8,0,0,1,1905,479.75Z"/><path class="cls-12" d="M347.27-22.78l-.4-.37a96.46,96.46,0,0,0-132.61,0,4.17,4.17,0,0,1-.38.34,96.58,96.58,0,0,0-.45,140c.24.23.47.42.72.65a96.48,96.48,0,0,0,66.41,26.52,2.42,2.42,0,0,1-2.41-2.41v-.12a93.84,93.84,0,0,1-25.74-4.15,2.38,2.38,0,0,1-1.38,1.33,3,3,0,0,1-.79.13,2.4,2.4,0,0,1-2.26-1.6s-.22-.69-.55-1.65l-.9-2.92a91.45,91.45,0,0,1-28.15-17.72,198,198,0,0,0,24.65,5c1.38,5.41,2.62,9.77,3.51,12.72,1.87.75,3.75,1.48,5.67,2.1-.61-1.87-2.17-6.83-4.05-14.12a263.48,263.48,0,0,0,30,2v16.55c.82,0,1.6.12,2.41.12s1.58-.1,2.38-.12V123a271.14,271.14,0,0,0,30-2c-1.89,7.29-3.45,12.25-4.06,14.12,1.91-.62,3.79-1.34,5.66-2.1.89-3,2.14-7.31,3.5-12.72a207.13,207.13,0,0,0,24.66-5A91.5,91.5,0,0,1,314.58,133c-.38,1.23-.68,2.17-.91,2.92-.32,1-.53,1.62-.55,1.65a2.42,2.42,0,0,1-2.26,1.6,3,3,0,0,1-.78-.13,2.35,2.35,0,0,1-1.38-1.33,93,93,0,0,1-25.76,4.15V142a2.41,2.41,0,0,1-2.38,2.41A96.52,96.52,0,0,0,347,117.89c.23-.22.48-.42.71-.65a96.59,96.59,0,0,0-.41-140Zm3.82,129.43a253.9,253.9,0,0,0,5.73-27.43c4.94-1.21,8.73-2.25,11.26-3A91.73,91.73,0,0,1,351.09,106.65Zm-158-30.44c2.53.75,6.31,1.8,11.26,3A252.52,252.52,0,0,0,210,106.65,91.37,91.37,0,0,1,193.05,76.21ZM278.16-44.66v16.55a261,261,0,0,0-30,2c1.88-7.3,3.44-12.26,4.05-14.11A92,92,0,0,1,278.16-44.66ZM354.53,45H327.67a272.68,272.68,0,0,0-2-30.28c10.76,1.41,19.82,3.17,26.94,4.8A212.16,212.16,0,0,1,354.53,45ZM206.59,45a212,212,0,0,1,2-25.48c7.12-1.63,16.18-3.39,26.93-4.8A275,275,0,0,0,233.45,45Zm9.2-59.73a189.41,189.41,0,0,1,26-5.71c-2,8.38-4.05,18.75-5.66,30.25-10.55,1.38-19.61,3.05-26.86,4.65A253.09,253.09,0,0,1,215.79-14.71Zm129.54,0a243.61,243.61,0,0,1,6.48,29.19c-7.25-1.6-16.29-3.27-26.85-4.65-1.6-11.5-3.67-21.87-5.65-30.25A186.75,186.75,0,0,1,345.33-14.71Zm-25.26,24A347.23,347.23,0,0,0,283,7.05V-23.32a262,262,0,0,1,31.29,2.16C316.23-12.86,318.38-2.46,320.07,9.26ZM278.16,7a352.48,352.48,0,0,0-37.1,2.2c1.67-11.71,3.82-22.12,5.84-30.4a256,256,0,0,1,31.28-2.15V7Zm-37.78,7.1a349.22,349.22,0,0,1,37.78-2.33V45H238.24A272.88,272.88,0,0,1,240.38,14.14ZM283,11.81a347.23,347.23,0,0,1,37.8,2.34A270.07,270.07,0,0,1,322.89,45H283Zm68.14-23.66a91.87,91.87,0,0,1,17,30.45c-2.54-.75-6.32-1.81-11.26-3A253,253,0,0,0,351.09-11.85Zm-8.36-8.6a199.28,199.28,0,0,0-24.66-5c-1.36-5.41-2.6-9.76-3.5-12.72A91.88,91.88,0,0,1,342.73-20.45ZM313-26.15a261.6,261.6,0,0,0-30-2V-44.66a91.54,91.54,0,0,1,26,4.4C309.53-38.41,311.09-33.45,313-26.15ZM243-25.47a211.39,211.39,0,0,0-24.63,5,92.15,92.15,0,0,1,28.14-17.69C245.66-35.22,244.42-30.88,243-25.47ZM210-11.81a248.36,248.36,0,0,0-5.73,27.42c-4.94,1.19-8.73,2.25-11.26,3A91.48,91.48,0,0,1,210-11.81ZM191.48,24.11c1.4-.45,5.6-1.78,12.11-3.4A210,210,0,0,0,201.81,45H188.49A91.26,91.26,0,0,1,191.48,24.11Zm10.33,25.68a208.3,208.3,0,0,0,1.78,24.33c-6.52-1.63-10.72-3-12.11-3.42a91.75,91.75,0,0,1-3-20.92h13.32Zm4.78,0h26.86A275.78,275.78,0,0,0,235.5,80.1c-10.76-1.44-19.81-3.18-26.93-4.79A213,213,0,0,1,206.59,49.79Zm31.65,0h39.92V83a337.38,337.38,0,0,1-37.78-2.33A272.4,272.4,0,0,1,238.24,49.79Zm44.71,0h39.94a270.29,270.29,0,0,1-2.14,30.89A340.16,340.16,0,0,1,283,83Zm44.71,0h26.85a209,209,0,0,1-2,25.52c-7.12,1.62-16.18,3.35-26.95,4.79A268.69,268.69,0,0,0,327.66,49.79Zm42,20.91c-1.4.47-5.61,1.8-12.11,3.42a208.32,208.32,0,0,0,1.75-24.33h13.32A90.09,90.09,0,0,1,369.66,70.7ZM359.3,45a210.31,210.31,0,0,0-1.75-24.3c6.5,1.62,10.71,3,12.11,3.4a90.18,90.18,0,0,1,3,20.92H359.3ZM215.79,109.55a248,248,0,0,1-6.49-29.2c7.25,1.61,16.3,3.27,26.86,4.62,1.6,11.54,3.67,21.89,5.66,30.29A193.35,193.35,0,0,1,215.79,109.55Zm31.1,6.44c-2-8.3-4.16-18.72-5.84-30.42a342,342,0,0,0,37.1,2.21v30.36A260.15,260.15,0,0,1,246.89,116ZM283,118.14V87.78a352.19,352.19,0,0,0,37.12-2.22c-1.67,11.69-3.83,22.12-5.83,30.41A256,256,0,0,1,283,118.14Zm36.36-2.89c2-8.39,4.06-18.75,5.65-30.29,10.56-1.35,19.61-3,26.85-4.62a241.64,241.64,0,0,1-6.48,29.19A187.8,187.8,0,0,1,319.31,115.25Z"/></svg>