<svg xmlns="http://www.w3.org/2000/svg" viewBox="0 0 1024 1024"><defs><style>.cls-1{fill:#27aae1;}.cls-2{fill:#ec008c;}.cls-3{fill:#808285;}.cls-4{fill:#ed1c24;}.cls-5{fill:#fff200;}.cls-6{fill:#a93e97;}.cls-7{fill:#f7941d;}.cls-8{fill:#00a79d;}.cls-9{fill:#00aeef;}.cls-10{fill:#f15a29;}</style></defs><title>logo</title><g id="Layer_1" data-name="Layer 1"><polygon class="cls-1" points="768.29 287.18 755.57 295.48 755.57 221.77 768.29 287.18"/><polygon class="cls-2" points="755.57 802.23 755.57 698.64 713.01 674.81 755.57 567.98 788.03 635.34 755.57 802.23"/><polygon class="cls-3" points="186.53 701.63 155.51 693.04 184.54 670.96 186.53 701.63"/><polygon class="cls-3" points="868.49 221.77 768.29 287.18 755.57 221.77 868.49 221.77"/><polygon class="cls-4" points="591.2 402.76 560.3 422.94 549.33 412.85 549.33 335.62 591.2 402.76"/><polygon class="cls-5" points="662.25 802.23 471.71 707.87 549.33 685.58 662.25 802.23"/><polygon class="cls-5" points="171.1 463.43 155.51 501.98 155.51 222.7 171.1 463.43"/><polygon class="cls-6" points="868.49 221.77 868.49 802.23 812.03 512.01 868.49 221.77"/><polygon class="cls-6" points="465.33 335.62 465.33 484.93 424.99 391.25 465.33 335.62"/><polygon class="cls-7" points="662.25 222.7 662.25 356.4 591.2 402.76 549.33 335.62 662.25 222.7"/><polygon class="cls-8" points="868.49 802.23 755.57 802.23 788.03 635.34 868.49 802.23"/><polygon class="cls-8" points="424.99 391.25 378.01 456.06 352.41 447.6 352.41 222.7 424.99 391.25"/><polygon class="cls-9" points="268.43 222.7 268.43 607.19 184.54 670.96 171.1 463.43 268.43 222.7"/><polygon class="cls-8" points="184.54 670.96 155.51 693.04 155.51 501.98 171.1 463.43 184.54 670.96"/><polygon class="cls-9" points="868.49 802.23 788.03 635.34 812.03 512.01 868.49 802.23"/><polygon class="cls-10" points="268.43 222.7 171.1 463.43 155.51 222.7 268.43 222.7"/><polygon class="cls-10" points="755.57 567.98 713.01 674.81 662.25 646.38 662.25 802.23 549.33 685.58 662.25 516.66 755.57 567.98"/><polygon class="cls-7" points="471.71 707.87 342.67 744.93 186.53 701.63 184.54 670.96 268.43 607.19 471.71 707.87"/><polygon class="cls-10" points="868.49 221.77 812.03 512.01 768.29 287.18 868.49 221.77"/><polygon class="cls-10" points="465.33 484.93 378.01 456.06 424.99 391.25 465.33 484.93"/><polygon class="cls-9" points="662.25 802.23 549.33 802.23 342.67 744.93 471.71 707.87 662.25 802.23"/><polygon class="cls-8" points="662.25 516.66 549.33 542.62 549.33 430.11 560.3 422.94 662.25 516.66"/><polygon class="cls-6" points="549.33 685.58 471.71 707.87 268.43 607.19 549.33 685.58"/><polygon class="cls-1" points="662.25 516.66 549.33 685.58 549.33 542.62 662.25 516.66"/><polygon class="cls-9" points="662.25 222.7 549.33 335.62 465.33 335.62 424.99 391.25 352.41 222.7 662.25 222.7"/><polygon class="cls-5" points="662.25 516.66 560.3 422.94 591.2 402.76 662.25 516.66"/><polygon class="cls-5" points="812.03 512.01 788.03 635.34 755.57 567.98 755.57 295.48 768.29 287.18 812.03 512.01"/><polygon class="cls-2" points="662.25 356.4 662.25 516.66 591.2 402.76 662.25 356.4"/><polygon class="cls-3" points="560.3 422.94 549.33 430.11 549.33 412.85 560.3 422.94"/></g></svg>